<svg width="29" height="29" viewBox="0 0 29 29" fill="none" xmlns="http://www.w3.org/2000/svg">
<g id="Union">
<path d="M0.456816 1.72181L0.195406 12.8454C0.179364 13.528 0.719714 14.0683 1.40231 14.0523C2.08491 14.0362 2.65126 13.4699 2.66731 12.7873L2.85859 4.64757L10.1858 11.9748C10.6571 12.4461 11.4397 12.4277 11.9337 11.9337C12.4277 11.4397 12.4461 10.6571 11.9748 10.1858L4.64757 2.85859L12.7873 2.66731C13.4699 2.65127 14.0362 2.08491 14.0523 1.40231C14.0683 0.719714 13.528 0.179365 12.8454 0.195406L1.72181 0.456816C1.03922 0.472857 0.472858 1.03921 0.456816 1.72181Z" fill="white" fill-opacity="0.5"/>
<path d="M1.64064 16.8095C1.55262 15.646 2.92451 15.1066 3.7337 15.9158C3.9641 16.1462 4.09719 16.4558 4.13046 16.786C4.37209 19.1837 5.39406 21.4948 7.2105 23.3113C11.515 27.6158 18.5975 27.4588 23.0281 23.0281C27.4588 18.5975 27.6158 11.515 23.3113 7.2105C21.4948 5.39406 19.1837 4.37209 16.786 4.13046C16.4558 4.09719 16.1462 3.9641 15.9158 3.7337C15.1066 2.92451 15.646 1.55262 16.8095 1.64064C19.857 1.87118 22.8067 3.12796 25.1002 5.42152C30.3326 10.6539 30.1691 19.3008 24.7349 24.7349C19.3008 30.1691 10.6539 30.3326 5.42153 25.1002C3.12796 22.8067 1.87118 19.857 1.64064 16.8095Z" fill="white" fill-opacity="0.5"/>
</g>
</svg>
