<svg width="31" height="31" viewBox="0 0 31 31" fill="none" xmlns="http://www.w3.org/2000/svg">
<g id="Union">
<path d="M13.0513 14.3162L1.92772 14.5776C1.24512 14.5937 0.704766 14.0533 0.720807 13.3707C0.736848 12.6881 1.30321 12.1218 1.98581 12.1057L10.1255 11.9144L2.79831 4.58722C2.32699 4.1159 2.34538 3.33333 2.83939 2.83932C3.3334 2.34531 4.11597 2.32692 4.58729 2.79824L11.9145 10.1255L12.1058 1.98574C12.1218 1.30314 12.6882 0.736777 13.3708 0.720735C14.0534 0.704696 14.5938 1.24505 14.5777 1.92764L14.3163 13.0512C14.3003 13.7338 13.7339 14.3002 13.0513 14.3162Z" fill="white" fill-opacity="0.5"/>
<path d="M3.64068 18.8095C3.55266 17.646 4.92455 17.1066 5.73375 17.9158C5.96415 18.1462 6.09724 18.4558 6.13051 18.786C6.37214 21.1838 7.39411 23.4949 9.21056 25.3113C13.5151 29.6158 20.5976 29.4588 25.0282 25.0282C29.4589 20.5975 29.6159 13.515 25.3114 9.21049C23.4949 7.39404 21.1838 6.37207 18.7861 6.13044C18.4559 6.09717 18.1463 5.96408 17.9159 5.73368C17.1067 4.92448 17.6461 3.55259 18.8096 3.64061C21.8571 3.87115 24.8068 5.12793 27.1004 7.4215C32.3328 12.6539 32.1692 21.3008 26.7351 26.735C21.3009 32.1691 12.654 32.3327 7.42158 27.1003C5.128 24.8067 3.87122 21.8571 3.64068 18.8095Z" fill="white" fill-opacity="0.5"/>
</g>
</svg>
