<svg width="372" height="358" viewBox="0 0 372 358" fill="none" xmlns="http://www.w3.org/2000/svg">
<path d="M184.164 61.8125C179.963 62.2968 175.49 65.0756 172.408 69.1322C171.913 69.7732 166.705 77.3883 160.843 86.0662C157.568 90.8924 153.26 97.2517 149.159 103.31L140.398 116.265C135.421 123.609 122.674 142.442 111.046 159.623L108.228 163.786C95.8972 181.984 85.7061 197.075 85.5627 197.34C84.9715 198.466 85.3231 199.557 86.4413 200.011C87.0161 200.26 100.162 200.276 128.897 200.087L144.551 199.979L145.573 199.619C146.867 199.151 148.784 197.903 149.47 197.061C149.774 196.701 153.895 190.615 158.639 183.529L208.89 108.54C212.228 103.561 215.119 99.1283 215.327 98.7064C215.752 97.7962 215.967 96.7815 215.972 95.7347C215.976 94.933 215.857 94.1132 215.615 93.3075C215.526 93.0242 214.927 92.0377 213.69 90.157C212.465 88.2904 210.612 85.5438 208.011 81.7282C198.731 68.1336 198.236 67.4465 195.76 65.4814C192.198 62.6404 188.173 61.3605 184.164 61.8125Z" fill="#3E3E3E" fill-opacity="0.2"/>
<path d="M219.426 103.223C219.3 103.322 219.188 103.42 219.112 103.5C218.537 104.109 190.92 145.468 190.52 146.326C189.754 147.979 189.657 150.149 190.296 151.929C190.584 152.693 199.72 166.412 245.547 234.799C249.812 241.152 254.268 247.815 255.466 249.625C257.974 253.419 258.964 254.479 260.753 255.37L261.016 255.498L261.476 255.721L261.584 255.769C263.137 256.443 264.999 256.436 282.484 256.374L284.457 256.368C305.479 256.306 305.483 256.306 308.214 255.593L308.353 255.556C308.928 255.416 310.206 254.901 311.212 254.433C312.777 253.7 313.192 253.419 314.247 252.388C316.291 250.375 317.138 248.331 317.138 245.398C317.138 243.65 316.754 241.713 316.084 240.075L315.934 239.699L315.818 239.404C315.009 237.407 313.758 235.578 286.438 195.675L275.083 179.088L275.016 178.992L274.98 178.94L261.867 159.78C256.963 152.607 250.314 142.882 244.86 134.917L244.63 134.58C224.026 104.445 223.294 103.376 222.626 102.986C221.843 102.518 220.741 102.44 220.022 102.829C219.839 102.924 219.616 103.074 219.426 103.223Z" fill="#3E3E3E" fill-opacity="0.2"/>
<path d="M182.868 157.332C183.14 157.053 183.587 156.725 183.842 156.599C184.945 156.117 186.255 156.49 187.133 157.521C187.389 157.833 191.015 163.155 208.473 188.952C211.716 193.744 214 197.27 214.111 197.66C214.367 198.566 214.048 199.299 213.217 199.705C212.61 200.001 211.907 200.001 185.12 200.001C158.525 200.001 157.631 199.987 157.04 199.705C155.954 199.175 155.698 198.144 156.337 196.943C156.976 195.757 182.325 157.895 182.868 157.332Z" fill="#3E3E3E" fill-opacity="0.2"/>
<path d="M173.829 204.992C173.797 205.038 158.095 205.084 138.944 205.1C119.808 205.132 99.6502 205.178 94.1554 205.225C88.6216 205.271 86.1267 205.295 84.8404 205.369C83.9438 205.42 83.6348 205.494 83.294 205.617C82.0642 206.036 80.1471 207.348 79.3965 208.269C79.0331 208.725 76.2513 213.115 73.0057 218.303C68.2677 225.876 62.5411 235.146 61.9062 236.36C60.4205 239.217 59.6539 241.964 59.6539 244.445C59.6539 246.41 59.9891 247.817 60.8518 249.486C62.7365 253.137 66.746 255.432 72.4325 256.087C73.2946 256.197 93.1971 256.274 127.699 256.338L171.328 256.414C188.999 256.449 205.473 256.483 215.726 256.509C240.372 256.571 250.036 256.539 250.515 256.414C252.048 256.009 252.495 254.932 251.697 253.465C251.457 253.013 247.336 246.832 242.544 239.732C238.523 233.786 233.164 225.82 229.534 220.423L227.657 217.632C220.725 207.316 220.374 206.864 218.217 205.866C217.499 205.538 216.572 205.179 216.141 205.084C215.598 204.96 209.544 204.913 194.641 204.913C188.462 204.913 182.883 204.927 179.06 204.945C175.827 204.96 173.851 204.978 173.829 204.992Z" fill="#3E3E3E" fill-opacity="0.2"/>
<path fill-rule="evenodd" clip-rule="evenodd" d="M186 358C288.343 358 371.308 277.859 371.308 179C371.308 80.1409 288.343 0 186 0C83.6574 0 0.692383 80.1409 0.692383 179C0.692383 277.859 83.6574 358 186 358ZM186 334.134C274.697 334.134 346.6 264.678 346.6 179C346.6 93.3216 274.697 23.8659 186 23.8659C97.3033 23.8659 25.4002 93.3216 25.4002 179C25.4002 264.678 97.3033 334.134 186 334.134Z" fill="#3E3E3E" fill-opacity="0.2"/>
</svg>
