<svg width="45" height="42" viewBox="0 0 45 42" fill="none" xmlns="http://www.w3.org/2000/svg">
<path id="Vector" fill-rule="evenodd" clip-rule="evenodd" d="M44.7145 21C44.7145 32.5981 34.7962 42 22.5612 42C10.3263 42 0.407959 32.5981 0.407959 21C0.407959 9.40202 10.3263 0 22.5612 0C34.7962 0 44.7145 9.40202 44.7145 21ZM16.2836 29.3569H11.9843C11.0809 29.3569 10.6346 29.3569 10.3625 29.192C10.0686 29.0113 9.88905 28.7121 9.86728 28.3819C9.85094 28.0776 10.0741 27.7061 10.5203 26.9632L21.1359 9.22588C21.5876 8.47268 21.8162 8.09607 22.1046 7.95679C22.4148 7.80719 22.7849 7.80719 23.0951 7.95679C23.3835 8.09607 23.6121 8.47268 24.0638 9.22588L26.2461 12.8371L26.2573 12.8555C26.7451 13.6636 26.9925 14.0733 27.1006 14.5034C27.2203 14.9729 27.2203 15.4681 27.1006 15.9376C26.9917 16.3709 26.7468 16.7836 26.2516 17.6039L20.6755 26.9477L20.661 26.9717C20.17 27.7864 19.9211 28.1993 19.5762 28.5108C19.2006 28.8514 18.7489 29.0988 18.2537 29.2384C17.802 29.3569 17.2959 29.3569 16.2836 29.3569ZM27.1408 29.3569H33.3013C34.2101 29.3569 34.6673 29.3569 34.9396 29.1869C35.2334 29.0063 35.4184 28.7018 35.4349 28.3718C35.4505 28.0774 35.2322 27.7203 34.8045 27.0206C34.7898 26.9967 34.775 26.9725 34.76 26.9478L31.6741 21.9437L31.639 21.8874C31.2054 21.1923 30.9865 20.8413 30.7054 20.7056C30.3954 20.556 30.0305 20.556 29.7204 20.7056C29.4374 20.8449 29.2089 21.2112 28.7572 21.9489L25.6823 26.953L25.6718 26.9702C25.2217 27.7068 24.9967 28.0748 25.0129 28.3768C25.0347 28.7071 25.2143 29.0113 25.5082 29.192C25.7749 29.3569 26.232 29.3569 27.1408 29.3569Z" fill="#E84142"/>
</svg>
