<svg width="46" height="44" viewBox="0 0 46 44" fill="none" xmlns="http://www.w3.org/2000/svg">
<g clip-path="url(#clip0_1400_2381)">
<path fill-rule="evenodd" clip-rule="evenodd" d="M22.8965 0.248047C35.5427 0.248047 45.7929 9.96464 45.7929 21.9526C45.7929 33.9405 35.5427 43.6571 22.8965 43.6571C10.2502 43.6571 0 33.9405 0 21.9526C0 9.96464 10.2502 0.248047 22.8965 0.248047Z" fill="#F0B90B"/>
<path d="M12.5839 21.9527L12.6004 27.6919L17.7448 30.5615V33.9215L9.58973 29.3875V20.2744L12.5839 21.9527ZM12.5839 16.2135V19.5579L9.58789 17.8779V14.5335L12.5839 12.8535L15.5945 14.5335L12.5839 16.2135ZM19.8931 14.5335L22.8891 12.8535L25.8998 14.5335L22.8891 16.2135L19.8931 14.5335Z" fill="white"/>
<path d="M14.7488 26.5023V23.1423L17.7448 24.8223V28.1667L14.7488 26.5023ZM19.8931 31.765L22.8891 33.445L25.8998 31.765V35.1093L22.8891 36.7893L19.8931 35.1093V31.765ZM30.1965 14.5335L33.1925 12.8535L36.2032 14.5335V17.8779L33.1925 19.5579V16.2135L30.1965 14.5335ZM33.1925 27.6919L33.209 21.9527L36.205 20.2727V29.3858L28.05 33.9198V30.5597L33.1925 27.6919Z" fill="white"/>
<path d="M31.0441 26.5026L28.0481 28.167V24.8226L31.0441 23.1426V26.5026Z" fill="white"/>
<path d="M31.0442 17.4032L31.0607 20.7633L25.9016 23.6329V29.3859L22.9056 31.0503L19.9097 29.3859V23.6329L14.7506 20.7633V17.4032L17.7594 15.7232L22.8873 18.6067L28.0463 15.7232L31.057 17.4032H31.0442ZM14.7488 11.6658L22.8891 7.11621L31.0442 11.6658L28.0482 13.3458L22.8891 10.4623L17.7448 13.3458L14.7488 11.6658Z" fill="white"/>
</g>
<defs>
<clipPath id="clip0_1400_2381">
<rect width="45.7929" height="43.409" fill="white"/>
</clipPath>
</defs>
</svg>
