<svg width="46" height="46" viewBox="0 0 46 46" fill="none" xmlns="http://www.w3.org/2000/svg">
<path d="M45.3118 28.5638C42.2397 40.8854 29.7585 48.384 17.4341 45.3114C5.11488 42.2396 -2.38462 29.7591 0.688894 17.4385C3.75971 5.11564 16.2408 -2.38358 28.5614 0.688239C40.8849 3.76005 48.384 16.2419 45.3115 28.564L45.3117 28.5638H45.3118Z" fill="#F7931A"/>
<path d="M33.3722 20.0506C33.8301 17.1622 31.4994 15.6096 28.3123 14.5738L29.3462 10.6613L26.8219 10.0678L25.8154 13.8774C25.1518 13.7212 24.4703 13.5741 23.793 13.4282L24.8067 9.59347L22.284 9L21.2495 12.9113C20.7003 12.7933 20.161 12.6767 19.6377 12.5539L19.6406 12.5416L16.1595 11.7214L15.488 14.2652C15.488 14.2652 17.3608 14.6703 17.3214 14.6952C18.3436 14.9359 18.5284 15.5744 18.4977 16.0804L17.32 20.5378C17.3904 20.5546 17.4817 20.5791 17.5824 20.6172C17.4982 20.5975 17.4086 20.576 17.3156 20.555L15.6649 26.7991C15.5399 27.0921 15.2228 27.5318 14.5082 27.3649C14.5335 27.3994 12.6734 26.9329 12.6734 26.9329L11.4202 29.6592L14.7052 30.4318C15.3163 30.5764 15.9152 30.7277 16.5049 30.87L15.4603 34.8274L17.9817 35.4209L19.0162 31.5054C19.705 31.6819 20.3735 31.8446 21.0279 31.998L19.9969 35.895L22.5213 36.4885L23.5658 32.5384C27.8703 33.307 31.107 32.9972 32.4693 29.3237C33.5671 26.3661 32.4147 24.6602 30.1501 23.5478C31.7995 23.1889 33.0419 22.1653 33.3731 20.0509L33.3723 20.0504L33.3722 20.0506ZM27.6047 27.6812C26.8246 30.6388 21.5468 29.04 19.8357 28.6391L21.2219 23.3962C22.9329 23.7992 28.4201 24.5968 27.6049 27.6812H27.6047ZM28.3854 20.0078C27.6738 22.698 23.281 21.3312 21.856 20.9961L23.1128 16.241C24.5378 16.5762 29.1268 17.2017 28.3856 20.0078H28.3854Z" fill="white"/>
</svg>
