<svg width="44" height="44" viewBox="0 0 44 44" fill="none" xmlns="http://www.w3.org/2000/svg">
<g id="polkadot-new-dot-logo 1" clip-path="url(#clip0_1594_2074)">
<path id="Vector" d="M21.7682 9.18675C26.3285 9.18675 30.0254 7.14859 30.0254 4.63439C30.0254 2.12019 26.3285 0.0820312 21.7682 0.0820312C17.2079 0.0820312 13.511 2.12019 13.511 4.63439C13.511 7.14859 17.2079 9.18675 21.7682 9.18675Z" fill="#E6007A"/>
<path id="Vector_2" d="M21.7682 43.4875C26.3285 43.4875 30.0254 41.4494 30.0254 38.9352C30.0254 36.421 26.3285 34.3828 21.7682 34.3828C17.2079 34.3828 13.511 36.421 13.511 38.9352C13.511 41.4494 17.2079 43.4875 21.7682 43.4875Z" fill="#E6007A"/>
<path id="Vector_3" d="M10.2612 15.4879C12.5414 11.7442 12.5266 7.68964 10.2282 6.43169C7.92977 5.17374 4.21809 7.1888 1.93793 10.9325C-0.342235 14.6761 -0.327437 18.7307 1.97098 19.9887C4.2694 21.2466 7.98108 19.2315 10.2612 15.4879Z" fill="#E6007A"/>
<path id="Vector_4" d="M41.595 32.6372C43.8751 28.8935 43.8616 24.8396 41.5647 23.5825C39.2679 22.3254 35.5574 24.3411 33.2773 28.0848C30.9971 31.8285 31.0107 35.8824 33.3075 37.1395C35.6044 38.3966 39.3148 36.3808 41.595 32.6372Z" fill="#E6007A"/>
<path id="Vector_5" d="M10.2294 37.1376C12.5278 35.8797 12.5426 31.8251 10.2625 28.0814C7.9823 24.3378 4.27062 22.3227 1.9722 23.5807C-0.326216 24.8386 -0.341015 28.8932 1.93915 32.6369C4.21931 36.3805 7.93099 38.3956 10.2294 37.1376Z" fill="#E6007A"/>
<path id="Vector_6" d="M41.5667 19.9898C43.8636 18.7327 43.8771 14.6788 41.5969 10.9351C39.3168 7.19146 35.6063 5.17571 33.3095 6.43281C31.0126 7.6899 30.9991 11.7438 33.2792 15.4875C35.5594 19.2311 39.2698 21.2469 41.5667 19.9898Z" fill="#E6007A"/>
</g>
<defs>
<clipPath id="clip0_1594_2074">
<rect width="43.0589" height="43.409" fill="white" transform="translate(0.240479 0.0820312)"/>
</clipPath>
</defs>
</svg>
