<svg width="46" height="44" viewBox="0 0 46 44" fill="none" xmlns="http://www.w3.org/2000/svg">
<g clip-path="url(#clip0_1400_2376)">
<path d="M44.04 13.0766C41.8934 11.1978 38.9241 8.3287 36.5056 6.29391L36.3625 6.19895C36.1244 6.0177 35.856 5.87556 35.5683 5.77842C29.7369 4.74746 2.5974 -0.0614445 2.06792 -0.000400535C1.91956 0.0192963 1.77774 0.0702874 1.65292 0.148818L1.51697 0.250558C1.34958 0.411714 1.22243 0.606406 1.14491 0.820301L1.10913 0.908476V1.39004V1.46465C4.16438 9.52923 16.2279 35.9477 18.6035 42.147C18.7466 42.5676 19.0184 43.3679 19.5265 43.4086H19.6409C19.9128 43.4086 21.072 41.9571 21.072 41.9571C21.072 41.9571 41.7933 18.1364 43.8897 15.5997C44.1611 15.2872 44.4007 14.9511 44.6052 14.5959C44.6575 14.3179 44.6328 14.0319 44.5338 13.7656C44.4347 13.4994 44.2646 13.262 44.04 13.0766ZM26.3882 15.8507L35.232 8.89845L40.4195 13.4293L26.3882 15.8507ZM22.9538 15.3962L7.72764 3.56728L32.3628 7.87426L22.9538 15.3962ZM24.3276 18.4959L39.9115 16.1152L22.0952 36.4632L24.3276 18.4959ZM5.6598 4.74746L21.6802 17.6345L19.3619 36.4767L5.6598 4.74746Z" fill="#FF060A"/>
</g>
<defs>
<clipPath id="clip0_1400_2376">
<rect width="45.7929" height="43.409" fill="white"/>
</clipPath>
</defs>
</svg>
