<svg width="46" height="37" viewBox="0 0 46 37" fill="none" xmlns="http://www.w3.org/2000/svg">
<path d="M36.3179 2.37402H41.7627L30.4315 12.9928C26.328 16.8363 19.675 16.8363 15.5685 12.9928L4.23291 2.37402H9.68219L18.291 10.4405C19.5452 11.6105 21.2356 12.2664 22.9967 12.2664C24.7578 12.2664 26.4482 11.6105 27.7025 10.4405L36.3179 2.37402Z" fill="#64809C"/>
<path d="M9.61211 31.9018H4.16357L15.5683 21.2176C19.6719 17.3741 26.3249 17.3741 30.4313 21.2176L41.8361 31.9018H36.3913L27.7089 23.7699C26.4546 22.5999 24.7643 21.944 23.0032 21.944C21.2421 21.944 19.5517 22.5999 18.2974 23.7699L9.61211 31.9018Z" fill="#64809C"/>
</svg>
