<svg width="83" height="65" viewBox="0 0 83 65" fill="none" xmlns="http://www.w3.org/2000/svg">
<g filter="url(#filter0_iii_1025_2673)">
<path d="M41.6012 0.0249529C40.4351 0.160233 39.1937 0.937004 38.338 2.07161C38.2006 2.25053 36.7552 4.38011 35.128 6.80642C33.4964 9.22838 30.9426 13.0293 29.4529 15.2505C27.9587 17.4717 23.9418 23.4503 20.5234 28.5385C17.1006 33.6268 14.272 37.8467 14.2321 37.9209C14.068 38.2351 14.1655 38.5406 14.4759 38.6671C14.6355 38.7369 18.2844 38.7413 26.2606 38.6889L30.6056 38.6584L30.8894 38.558C31.2485 38.4271 31.7806 38.078 31.9712 37.8423C32.0555 37.742 33.1994 36.0401 34.5162 34.0589C36.7951 30.6332 44.8688 18.4973 48.4645 13.0904C49.3912 11.6983 50.1937 10.459 50.2513 10.3412C50.4597 9.89169 50.4863 9.35056 50.3311 8.83126C50.2823 8.67416 49.6705 7.73593 48.2207 5.59326C45.6447 1.79233 45.5073 1.60031 44.82 1.05046C43.8313 0.256238 42.714 -0.1016 41.6012 0.0249529Z" fill="#2A19B9" fill-opacity="0.5"/>
</g>
<g filter="url(#filter1_iii_1025_2673)">
<path d="M51.5548 11.494C51.4705 11.5376 51.3553 11.6249 51.302 11.6816C51.1424 11.8518 43.4766 23.4161 43.3658 23.6561C43.1529 24.1187 43.1263 24.7252 43.3037 25.2227C43.3835 25.4366 45.9196 29.2724 58.6398 48.3949C59.8236 50.171 61.0606 52.0344 61.3931 52.5406C62.0892 53.601 62.3641 53.8978 62.8607 54.1465C63.4902 54.4563 63.2065 54.4476 69.4402 54.4258C75.3725 54.4083 75.275 54.4083 76.073 54.1989C76.2326 54.1596 76.5873 54.0156 76.8667 53.8847C77.3012 53.6796 77.4164 53.601 77.7091 53.313C78.2766 52.7501 78.5116 52.1784 78.5116 51.358C78.5116 50.8692 78.4051 50.3281 78.2189 49.8699C77.9041 49.0888 78.3918 49.8175 69.0767 36.1106C67.7466 34.1556 65.6583 31.0791 64.4346 29.2811C63.2109 27.4789 60.5197 23.5121 58.4491 20.4661C52.6676 11.9478 52.4637 11.6467 52.2775 11.5376C52.0602 11.4067 51.7543 11.3849 51.5548 11.494Z" fill="#2A19B9" fill-opacity="0.5"/>
</g>
<g filter="url(#filter2_iii_1025_2673)">
<path d="M41.5124 26.5291C41.4414 26.564 41.3173 26.6557 41.2419 26.7342C41.0912 26.8913 34.0549 37.4781 33.8776 37.8097C33.7002 38.1457 33.7712 38.4338 34.0727 38.5821C34.2367 38.6607 34.485 38.665 41.8671 38.665C49.3023 38.665 49.4974 38.665 49.6659 38.5821C49.8965 38.4687 49.9851 38.2636 49.9142 38.0105C49.8832 37.9014 49.2491 36.9151 48.3491 35.5754C43.5031 28.3619 42.4966 26.8739 42.4257 26.7866C42.1819 26.4986 41.8183 26.3938 41.5124 26.5291Z" fill="#2A19B9" fill-opacity="0.5"/>
</g>
<g filter="url(#filter3_iii_1025_2673)">
<path d="M38.7325 40.06C38.7236 40.0731 34.3653 40.0862 29.0493 40.0905C23.7378 40.0993 18.1425 40.1124 16.6173 40.1255C14.0103 40.1473 13.8329 40.1516 13.6024 40.2345C13.261 40.3524 12.7289 40.7189 12.5206 40.9764C12.2723 41.2906 7.96273 48.2597 7.66568 48.8314C7.25334 49.63 7.04053 50.398 7.04053 51.0919C7.04053 51.6417 7.13363 52.0345 7.37305 52.5014C7.89623 53.5226 9.00908 54.164 10.5875 54.3473C10.8269 54.3779 16.3513 54.3997 25.928 54.4171C34.1569 54.4302 45.1524 54.4521 50.362 54.4651C57.2032 54.4826 59.8855 54.4739 60.0186 54.439C60.4442 54.3255 60.5683 54.0244 60.3466 53.6142C60.2801 53.4876 59.1363 51.7595 57.8061 49.774C56.476 47.7928 54.6183 45.0086 53.674 43.5947C51.7497 40.7102 51.6522 40.5837 51.0537 40.3044C50.8541 40.2127 50.597 40.1124 50.4773 40.0862C50.3265 40.0513 48.6462 40.0382 44.5095 40.0382C41.3439 40.0382 38.7458 40.0513 38.7325 40.06Z" fill="#5517A4" fill-opacity="0.5"/>
</g>
<path d="M4.68198 56.3676C4.64208 56.3982 4.49577 56.6295 4.35832 56.8826C4.22088 57.1357 4.0391 57.4499 3.95929 57.5808C3.52479 58.3008 -0.0088507 64.7594 1.66602e-05 64.8205C0.0133177 64.8816 0.186231 64.8903 1.61388 64.9034C3.09029 64.9121 3.2233 64.9077 3.31198 64.8379C3.36518 64.7943 3.55139 64.4844 3.72874 64.1528C3.92382 63.7819 4.09674 63.5113 4.17211 63.4546C4.29625 63.3629 4.33172 63.3629 6.43772 63.3629C8.33977 63.3629 8.58806 63.3717 8.6856 63.4328C8.7521 63.4764 8.92945 63.7557 9.1201 64.1092C9.29744 64.4452 9.49253 64.7594 9.55016 64.8161L9.66101 64.9121L11.266 64.9034C12.8533 64.8903 12.871 64.8903 12.8666 64.7986C12.8666 64.7157 9.44376 58.471 8.80531 57.3888C8.63683 57.1051 8.45061 56.7778 8.39297 56.6644C8.19789 56.2891 8.35307 56.3153 6.44659 56.3153C5.16082 56.3153 4.73519 56.3284 4.68198 56.3676ZM6.57516 59.0514C6.81458 59.4704 7.83876 61.6305 7.8299 61.7047C7.8166 61.7919 7.78999 61.7919 6.44215 61.7919H5.06771L5.05441 61.6916C5.04554 61.6261 5.27166 61.1155 5.66626 60.3169C6.01652 59.6144 6.31801 59.0165 6.34018 58.986C6.41555 58.8987 6.49979 58.9249 6.57516 59.0514Z" fill="url(#paint0_linear_1025_2673)"/>
<path d="M14.0681 56.3901C14.0016 56.4555 13.9971 56.5603 14.0193 57.4025C14.0371 57.9218 14.0681 59.279 14.0947 60.4267C14.1213 61.8187 14.1612 62.6435 14.2011 62.9359C14.3829 64.1141 15.079 64.7251 16.4844 64.9389C16.817 64.9869 17.4466 65 19.4993 65C22.1418 65 22.8246 64.9695 23.3212 64.8473C23.9729 64.6814 24.6823 64.2189 24.9306 63.8043C24.9927 63.6996 25.0858 63.4639 25.1346 63.2719C25.2232 62.9577 25.2321 62.7613 25.2631 60.9416C25.3252 57.564 25.3208 56.4643 25.2365 56.3857C25.1789 56.3246 24.9794 56.3159 23.7202 56.3159C22.9177 56.3159 22.2438 56.3333 22.2039 56.3595C22.1507 56.3901 22.1374 56.8308 22.1285 59.4011C22.1197 61.0507 22.0931 62.53 22.0709 62.6828C22.0221 63.0319 21.8891 63.1846 21.5388 63.285C21.1753 63.3941 18.1338 63.3941 17.7702 63.285C17.5264 63.2152 17.3357 63.0668 17.2559 62.8835C17.2382 62.8355 17.2071 61.3562 17.1938 59.5975C17.1761 56.8177 17.1628 56.3944 17.1052 56.3595C17.0653 56.3333 16.4268 56.3159 15.5888 56.3159C14.2942 56.3159 14.1346 56.3246 14.0681 56.3901Z" fill="url(#paint1_linear_1025_2673)"/>
<path d="M27.6174 56.3955C27.5819 56.461 27.5686 57.7221 27.5686 60.6329C27.5686 64.3421 27.5775 64.7829 27.6395 64.844C27.6972 64.9051 27.8967 64.9138 29.1381 64.9138C30.2997 64.9138 30.5835 64.9007 30.6544 64.8527C30.7342 64.796 30.7387 64.7131 30.7609 63.609C30.7786 62.7275 30.7963 62.4177 30.8407 62.374C30.8806 62.3348 31.1155 62.3129 31.6831 62.3042C32.6186 62.2868 33.257 62.3435 33.4211 62.4613C33.4831 62.505 33.9398 63.0504 34.4408 63.6745C34.9418 64.2941 35.4029 64.8265 35.4606 64.8571C35.5891 64.9225 38.6351 64.94 38.7326 64.8745C38.7769 64.8484 38.7149 64.748 38.4888 64.4731C36.866 62.518 36.7862 62.4133 36.7995 62.3086C36.8128 62.1864 36.866 62.1558 37.5222 61.8504C38.0099 61.6235 38.4577 61.2176 38.6306 60.8423C38.7858 60.5107 38.8479 59.9434 38.8124 59.1535C38.7725 58.176 38.6351 57.7178 38.2715 57.3207C37.8459 56.8581 36.9591 56.5439 35.6601 56.3999C35.3807 56.3693 33.8112 56.3432 31.4392 56.3301C27.675 56.3082 27.6661 56.3082 27.6174 56.3955ZM34.9507 58.0756C35.1768 58.176 35.3098 58.3025 35.4295 58.5207C35.5182 58.6778 35.5271 58.7651 35.5271 59.3281C35.5271 59.9172 35.5182 59.9783 35.4162 60.179C35.3187 60.371 35.2743 60.4103 35.0394 60.5063L34.7733 60.6154L32.8491 60.6285C31.0934 60.6416 30.9205 60.6329 30.8451 60.5674C30.7653 60.4976 30.7609 60.4103 30.7609 59.3324C30.7609 58.6953 30.7786 58.1454 30.8008 58.1149C30.8761 57.9971 31.1599 57.9796 32.9555 57.9883C34.596 57.9971 34.7911 58.0058 34.9507 58.0756Z" fill="url(#paint2_linear_1025_2673)"/>
<path d="M44.4697 56.4123C44.4209 56.469 43.4056 58.2713 42.2218 60.4183C39.5571 65.2404 39.7788 64.8259 39.8542 64.8739C39.9384 64.9262 42.9622 64.9262 43.0997 64.8739C43.175 64.8433 43.2947 64.6644 43.5297 64.2149C43.7115 63.8745 43.911 63.5516 43.982 63.4949C44.1549 63.3509 44.5051 63.3334 46.62 63.3509C48.3403 63.364 48.4068 63.3683 48.5265 63.4556C48.6019 63.508 48.7836 63.796 48.992 64.1713C49.1782 64.516 49.3645 64.8259 49.4088 64.8564C49.5063 64.9262 52.6853 64.9393 52.7296 64.8695C52.7651 64.8128 52.7828 64.852 50.4817 60.6802C48.0787 56.3381 48.1496 56.4603 48.0654 56.3818C48.0122 56.325 47.7329 56.3163 46.283 56.3163H44.5628L44.4697 56.4123ZM46.3761 59.0088C46.487 59.1397 47.7018 61.649 47.6885 61.7231C47.6752 61.7842 47.5156 61.793 46.3673 61.8061C45.649 61.8104 45.015 61.8061 44.9618 61.793C44.9042 61.7799 44.8598 61.7406 44.8598 61.7057C44.8598 61.5617 46.1811 58.9346 46.252 58.9346C46.283 58.9346 46.3407 58.9695 46.3761 59.0088Z" fill="url(#paint3_linear_1025_2673)"/>
<path d="M53.488 56.3797C53.4747 56.419 53.4614 58.3347 53.4614 60.6345C53.4614 64.239 53.4703 64.8194 53.5279 64.8674C53.5767 64.9067 54.49 64.9067 57.6823 64.8718C59.9346 64.8413 61.9431 64.802 62.1514 64.7758C63.6988 64.5969 64.5988 63.8812 64.7673 62.6942C64.8427 62.1618 64.6698 61.612 64.3018 61.2105C64.0535 60.9399 63.7919 60.7741 63.2909 60.5647C63.0071 60.4468 62.9052 60.3857 62.914 60.3377C62.9229 60.2985 63.1002 60.1544 63.3131 60.0148C64.0402 59.5391 64.3417 58.9326 64.2308 58.1471C64.1156 57.331 63.5481 56.7768 62.5726 56.5324C61.9165 56.3666 61.4775 56.3491 57.4473 56.3273C53.7851 56.3055 53.5191 56.3099 53.488 56.3797ZM60.0454 58.0161C60.4046 58.0685 60.7149 58.2082 60.8346 58.3696C61.1317 58.7755 60.9277 59.3559 60.3868 59.6177L60.1341 59.7399L58.4671 59.753C56.9685 59.7661 56.7911 59.7617 56.7246 59.6962C56.6182 59.5915 56.6182 58.1471 56.7246 58.0423C56.7823 57.9812 56.9862 57.9725 58.2631 57.9725C59.0745 57.9725 59.877 57.9943 60.0454 58.0161ZM60.5997 61.516C61.0696 61.5902 61.2869 61.7298 61.4199 62.044C61.5573 62.3713 61.4509 62.8557 61.1982 63.0172C60.9233 63.1961 60.6529 63.2179 58.7375 63.2397C57.27 63.2528 56.8754 63.2441 56.7867 63.2004L56.6758 63.1393L56.6625 62.3888C56.6581 61.9218 56.6714 61.6033 56.698 61.5509C56.7423 61.468 56.8044 61.4636 58.0636 61.4505C59.571 61.4331 60.1918 61.4505 60.5997 61.516Z" fill="url(#paint4_linear_1025_2673)"/>
<path d="M65.8753 56.3608C65.8221 56.3913 65.8044 56.5397 65.7955 57.1157C65.7822 57.7485 65.7911 57.8358 65.8576 57.8925C65.9108 57.9361 66.1147 57.9623 66.5581 57.9798C66.9039 57.9929 67.2187 58.0234 67.263 58.0409C67.3074 58.0583 67.365 58.1238 67.3872 58.1805C67.4404 58.3245 67.4404 62.8673 67.3827 63.0113C67.3162 63.1902 67.1832 63.2252 66.5049 63.2513C66.0083 63.2732 65.862 63.2906 65.831 63.343C65.8088 63.3779 65.7866 63.7095 65.7866 64.0717C65.7866 64.6827 65.7955 64.7481 65.8753 64.8267C65.964 64.914 66.0083 64.914 69.0498 64.9052C71.7322 64.8922 72.1357 64.8834 72.1711 64.8267C72.2288 64.7394 72.2288 63.4303 72.1711 63.343C72.1401 63.2906 71.9893 63.2732 71.4928 63.2513C70.7346 63.2252 70.6415 63.1859 70.5972 62.8979C70.5839 62.7931 70.575 61.6934 70.5839 60.4541L70.5972 58.198L70.6947 58.0976C70.7878 58.0103 70.8499 57.9972 71.4617 57.9754C71.9805 57.9536 72.1401 57.9361 72.1711 57.8881C72.1977 57.8532 72.2155 57.5128 72.2155 57.1375C72.2155 56.5746 72.2022 56.4437 72.1445 56.387C72.0825 56.3259 71.7366 56.3171 69.0099 56.3171C67.1566 56.3171 65.9152 56.3346 65.8753 56.3608Z" fill="url(#paint5_linear_1025_2673)"/>
<path d="M73.0715 56.3689C73.0227 56.4518 73.0537 57.857 73.1069 57.9094C73.1335 57.9355 73.803 57.9617 74.9159 57.9748C76.3125 57.9923 76.6938 58.0097 76.7514 58.0577C76.8179 58.1101 76.8268 58.4287 76.8357 61.4659C76.8445 63.3118 76.8667 64.8348 76.8844 64.8566C76.9376 64.909 79.8506 64.9221 79.9304 64.8697C79.988 64.8348 79.9969 64.4028 80.0102 61.479C80.019 58.4505 80.0279 58.1232 80.0944 58.0534C80.1609 57.9792 80.2718 57.9748 81.5442 57.9748C82.3024 57.9748 82.9497 57.9574 82.9852 57.9355C83.0384 57.9006 82.9586 57.761 82.5906 57.2111C82.3379 56.8402 82.0851 56.4824 82.0231 56.4256L81.9122 56.3165H77.5096C74.038 56.3165 73.0981 56.3296 73.0715 56.3689Z" fill="url(#paint6_linear_1025_2673)"/>
<defs>
<filter id="filter0_iii_1025_2673" x="14.1533" y="0" width="36.2771" height="38.7244" filterUnits="userSpaceOnUse" color-interpolation-filters="sRGB">
<feFlood flood-opacity="0" result="BackgroundImageFix"/>
<feBlend mode="normal" in="SourceGraphic" in2="BackgroundImageFix" result="shape"/>
<feColorMatrix in="SourceAlpha" type="matrix" values="0 0 0 0 0 0 0 0 0 0 0 0 0 0 0 0 0 0 127 0" result="hardAlpha"/>
<feOffset/>
<feGaussianBlur stdDeviation="2"/>
<feComposite in2="hardAlpha" operator="arithmetic" k2="-1" k3="1"/>
<feColorMatrix type="matrix" values="0 0 0 0 1 0 0 0 0 1 0 0 0 0 1 0 0 0 1 0"/>
<feBlend mode="overlay" in2="shape" result="effect1_innerShadow_1025_2673"/>
<feColorMatrix in="SourceAlpha" type="matrix" values="0 0 0 0 0 0 0 0 0 0 0 0 0 0 0 0 0 0 127 0" result="hardAlpha"/>
<feOffset/>
<feGaussianBlur stdDeviation="2.5"/>
<feComposite in2="hardAlpha" operator="arithmetic" k2="-1" k3="1"/>
<feColorMatrix type="matrix" values="0 0 0 0 1 0 0 0 0 1 0 0 0 0 1 0 0 0 1 0"/>
<feBlend mode="overlay" in2="effect1_innerShadow_1025_2673" result="effect2_innerShadow_1025_2673"/>
<feColorMatrix in="SourceAlpha" type="matrix" values="0 0 0 0 0 0 0 0 0 0 0 0 0 0 0 0 0 0 127 0" result="hardAlpha"/>
<feOffset/>
<feGaussianBlur stdDeviation="0.5"/>
<feComposite in2="hardAlpha" operator="arithmetic" k2="-1" k3="1"/>
<feColorMatrix type="matrix" values="0 0 0 0 1 0 0 0 0 1 0 0 0 0 1 0 0 0 1 0"/>
<feBlend mode="normal" in2="effect2_innerShadow_1025_2673" result="effect3_innerShadow_1025_2673"/>
</filter>
<filter id="filter1_iii_1025_2673" x="43.1865" y="11.4241" width="35.325" height="43.011" filterUnits="userSpaceOnUse" color-interpolation-filters="sRGB">
<feFlood flood-opacity="0" result="BackgroundImageFix"/>
<feBlend mode="normal" in="SourceGraphic" in2="BackgroundImageFix" result="shape"/>
<feColorMatrix in="SourceAlpha" type="matrix" values="0 0 0 0 0 0 0 0 0 0 0 0 0 0 0 0 0 0 127 0" result="hardAlpha"/>
<feOffset/>
<feGaussianBlur stdDeviation="2"/>
<feComposite in2="hardAlpha" operator="arithmetic" k2="-1" k3="1"/>
<feColorMatrix type="matrix" values="0 0 0 0 1 0 0 0 0 1 0 0 0 0 1 0 0 0 1 0"/>
<feBlend mode="overlay" in2="shape" result="effect1_innerShadow_1025_2673"/>
<feColorMatrix in="SourceAlpha" type="matrix" values="0 0 0 0 0 0 0 0 0 0 0 0 0 0 0 0 0 0 127 0" result="hardAlpha"/>
<feOffset/>
<feGaussianBlur stdDeviation="2.5"/>
<feComposite in2="hardAlpha" operator="arithmetic" k2="-1" k3="1"/>
<feColorMatrix type="matrix" values="0 0 0 0 1 0 0 0 0 1 0 0 0 0 1 0 0 0 1 0"/>
<feBlend mode="overlay" in2="effect1_innerShadow_1025_2673" result="effect2_innerShadow_1025_2673"/>
<feColorMatrix in="SourceAlpha" type="matrix" values="0 0 0 0 0 0 0 0 0 0 0 0 0 0 0 0 0 0 127 0" result="hardAlpha"/>
<feOffset/>
<feGaussianBlur stdDeviation="0.5"/>
<feComposite in2="hardAlpha" operator="arithmetic" k2="-1" k3="1"/>
<feColorMatrix type="matrix" values="0 0 0 0 1 0 0 0 0 1 0 0 0 0 1 0 0 0 1 0"/>
<feBlend mode="normal" in2="effect2_innerShadow_1025_2673" result="effect3_innerShadow_1025_2673"/>
</filter>
<filter id="filter2_iii_1025_2673" x="33.7817" y="26.4707" width="16.1562" height="12.1943" filterUnits="userSpaceOnUse" color-interpolation-filters="sRGB">
<feFlood flood-opacity="0" result="BackgroundImageFix"/>
<feBlend mode="normal" in="SourceGraphic" in2="BackgroundImageFix" result="shape"/>
<feColorMatrix in="SourceAlpha" type="matrix" values="0 0 0 0 0 0 0 0 0 0 0 0 0 0 0 0 0 0 127 0" result="hardAlpha"/>
<feOffset/>
<feGaussianBlur stdDeviation="2"/>
<feComposite in2="hardAlpha" operator="arithmetic" k2="-1" k3="1"/>
<feColorMatrix type="matrix" values="0 0 0 0 1 0 0 0 0 1 0 0 0 0 1 0 0 0 1 0"/>
<feBlend mode="overlay" in2="shape" result="effect1_innerShadow_1025_2673"/>
<feColorMatrix in="SourceAlpha" type="matrix" values="0 0 0 0 0 0 0 0 0 0 0 0 0 0 0 0 0 0 127 0" result="hardAlpha"/>
<feOffset/>
<feGaussianBlur stdDeviation="2.5"/>
<feComposite in2="hardAlpha" operator="arithmetic" k2="-1" k3="1"/>
<feColorMatrix type="matrix" values="0 0 0 0 1 0 0 0 0 1 0 0 0 0 1 0 0 0 1 0"/>
<feBlend mode="overlay" in2="effect1_innerShadow_1025_2673" result="effect2_innerShadow_1025_2673"/>
<feColorMatrix in="SourceAlpha" type="matrix" values="0 0 0 0 0 0 0 0 0 0 0 0 0 0 0 0 0 0 127 0" result="hardAlpha"/>
<feOffset/>
<feGaussianBlur stdDeviation="0.5"/>
<feComposite in2="hardAlpha" operator="arithmetic" k2="-1" k3="1"/>
<feColorMatrix type="matrix" values="0 0 0 0 1 0 0 0 0 1 0 0 0 0 1 0 0 0 1 0"/>
<feBlend mode="normal" in2="effect2_innerShadow_1025_2673" result="effect3_innerShadow_1025_2673"/>
</filter>
<filter id="filter3_iii_1025_2673" x="7.04053" y="40.0381" width="53.4143" height="14.4358" filterUnits="userSpaceOnUse" color-interpolation-filters="sRGB">
<feFlood flood-opacity="0" result="BackgroundImageFix"/>
<feBlend mode="normal" in="SourceGraphic" in2="BackgroundImageFix" result="shape"/>
<feColorMatrix in="SourceAlpha" type="matrix" values="0 0 0 0 0 0 0 0 0 0 0 0 0 0 0 0 0 0 127 0" result="hardAlpha"/>
<feOffset/>
<feGaussianBlur stdDeviation="2.5"/>
<feComposite in2="hardAlpha" operator="arithmetic" k2="-1" k3="1"/>
<feColorMatrix type="matrix" values="0 0 0 0 1 0 0 0 0 1 0 0 0 0 1 0 0 0 1 0"/>
<feBlend mode="overlay" in2="shape" result="effect1_innerShadow_1025_2673"/>
<feColorMatrix in="SourceAlpha" type="matrix" values="0 0 0 0 0 0 0 0 0 0 0 0 0 0 0 0 0 0 127 0" result="hardAlpha"/>
<feOffset/>
<feGaussianBlur stdDeviation="1.5"/>
<feComposite in2="hardAlpha" operator="arithmetic" k2="-1" k3="1"/>
<feColorMatrix type="matrix" values="0 0 0 0 1 0 0 0 0 1 0 0 0 0 1 0 0 0 1 0"/>
<feBlend mode="overlay" in2="effect1_innerShadow_1025_2673" result="effect2_innerShadow_1025_2673"/>
<feColorMatrix in="SourceAlpha" type="matrix" values="0 0 0 0 0 0 0 0 0 0 0 0 0 0 0 0 0 0 127 0" result="hardAlpha"/>
<feOffset/>
<feGaussianBlur stdDeviation="1"/>
<feComposite in2="hardAlpha" operator="arithmetic" k2="-1" k3="1"/>
<feColorMatrix type="matrix" values="0 0 0 0 1 0 0 0 0 1 0 0 0 0 1 0 0 0 1 0"/>
<feBlend mode="normal" in2="effect2_innerShadow_1025_2673" result="effect3_innerShadow_1025_2673"/>
</filter>
<linearGradient id="paint0_linear_1025_2673" x1="6.43344" y1="64.9121" x2="6.43344" y2="56.3149" gradientUnits="userSpaceOnUse">
<stop stop-color="#8587D9"/>
<stop offset="0.515625" stop-color="#7E81DB"/>
<stop offset="1" stop-color="#5E60C4"/>
</linearGradient>
<linearGradient id="paint1_linear_1025_2673" x1="19.6563" y1="65" x2="19.6563" y2="56.3159" gradientUnits="userSpaceOnUse">
<stop stop-color="#8587D9"/>
<stop offset="0.515625" stop-color="#7E81DB"/>
<stop offset="1" stop-color="#5E60C4"/>
</linearGradient>
<linearGradient id="paint2_linear_1025_2673" x1="33.1954" y1="64.9158" x2="33.1954" y2="56.3179" gradientUnits="userSpaceOnUse">
<stop stop-color="#8587D9"/>
<stop offset="0.515625" stop-color="#7E81DB"/>
<stop offset="1" stop-color="#5E60C4"/>
</linearGradient>
<linearGradient id="paint3_linear_1025_2673" x1="46.2765" y1="64.9158" x2="46.2765" y2="56.3163" gradientUnits="userSpaceOnUse">
<stop stop-color="#8587D9"/>
<stop offset="0.515625" stop-color="#7E81DB"/>
<stop offset="1" stop-color="#5E60C4"/>
</linearGradient>
<linearGradient id="paint4_linear_1025_2673" x1="59.123" y1="64.8975" x2="59.123" y2="56.3157" gradientUnits="userSpaceOnUse">
<stop stop-color="#8587D9"/>
<stop offset="0.515625" stop-color="#7E81DB"/>
<stop offset="1" stop-color="#5E60C4"/>
</linearGradient>
<linearGradient id="paint5_linear_1025_2673" x1="69.001" y1="64.9089" x2="69.001" y2="56.3171" gradientUnits="userSpaceOnUse">
<stop stop-color="#8587D9"/>
<stop offset="0.515625" stop-color="#7E81DB"/>
<stop offset="1" stop-color="#5E60C4"/>
</linearGradient>
<linearGradient id="paint6_linear_1025_2673" x1="78.0236" y1="64.9031" x2="78.0236" y2="56.3165" gradientUnits="userSpaceOnUse">
<stop stop-color="#8587D9"/>
<stop offset="0.515625" stop-color="#7E81DB"/>
<stop offset="1" stop-color="#5E60C4"/>
</linearGradient>
</defs>
</svg>
