<svg width="81" height="51" viewBox="0 0 81 51" fill="none" xmlns="http://www.w3.org/2000/svg">
<path d="M1.58496 5.14072L0.850083 36.4112C0.804986 38.3301 2.32401 39.8491 4.24293 39.804C6.16184 39.7589 7.75398 38.1668 7.79908 36.2479L8.33682 13.3656L28.935 33.9638C30.26 35.2888 32.4599 35.2371 33.8487 33.8483C35.2375 32.4595 35.2892 30.2596 33.9642 28.9346L13.366 8.33643L36.2483 7.79869C38.1672 7.75359 39.7593 6.16145 39.8044 4.24254C39.8495 2.32362 38.3305 0.804597 36.4116 0.849692L5.14111 1.58457C3.22219 1.62966 1.63005 3.2218 1.58496 5.14072Z" fill="white" />
<path d="M4.91291 47.5551C4.66547 44.2843 8.52211 42.7679 10.7969 45.0427C11.4446 45.6904 11.8188 46.5608 11.9123 47.489C12.5916 54.2296 15.4645 60.7265 20.5709 65.8329C32.6717 77.9337 52.5818 77.4924 65.0373 65.0369C77.4927 52.5814 77.9341 32.6714 65.8333 20.5705C60.7269 15.4641 54.23 12.5912 47.4894 11.9119C46.5612 11.8184 45.6908 11.4442 45.0431 10.7965C42.7683 8.52172 44.2847 4.66508 47.5555 4.91253C56.1228 5.56063 64.4148 9.09367 70.8624 15.5413C85.5717 30.2506 85.1119 54.5587 69.8355 69.8351C54.5591 85.1115 30.251 85.5713 15.5417 70.862C9.09406 64.4144 5.56102 56.1224 4.91291 47.5551Z" fill="white" />
</svg>
