<svg width="131" height="127" viewBox="0 0 131 127" fill="none" xmlns="http://www.w3.org/2000/svg">
<g id="Vector">
<path d="M24.3994 151.759C23.4556 150.768 23.4896 149.204 24.4753 148.265L37.5629 135.797C38.5486 134.858 40.1127 134.9 41.0564 135.89L72.3835 168.774C73.3273 169.765 73.2933 171.329 72.3076 172.268L59.22 184.736C58.2343 185.675 56.6703 185.633 55.7265 184.643L24.3994 151.759Z" fill="#3F3F3F"/>
<path d="M66.6243 138.905C65.6806 137.914 65.7145 136.35 66.7002 135.411L79.7879 122.943C80.7735 122.004 82.3376 122.046 83.2813 123.037L100.938 141.571C101.882 142.562 101.848 144.126 100.863 145.065L87.7748 157.533C86.7892 158.472 85.2251 158.43 84.2814 157.44L66.6243 138.905Z" fill="#3F3F3F"/>
<path d="M82.104 96.7859C81.1603 95.7953 81.1943 94.2311 82.1799 93.2921L95.2676 80.8241C96.2532 79.8851 97.8173 79.9269 98.761 80.9176L130.088 113.802C131.032 114.792 130.998 116.356 130.012 117.295L116.925 129.763C115.939 130.702 114.375 130.661 113.431 129.67L82.104 96.7859Z" fill="#3F3F3F"/>
<path d="M90.0779 51.5527C89.1342 50.5621 89.1682 48.9979 90.1538 48.0589L103.241 35.5908C104.227 34.6519 105.791 34.6937 106.735 35.6843L156.858 88.2988C157.802 89.2895 157.768 90.8537 156.782 91.7927L143.695 104.261C142.709 105.2 141.145 105.158 140.201 104.167L90.0779 51.5527Z" fill="#3F3F3F"/>
<path d="M2.6526 100.399C1.71028 109.243 0.224395 124.591 0.400363 127.436C0.416163 127.691 0.543541 127.908 0.720393 128.094L15.0568 143.143C16.031 144.166 17.7499 143.579 17.8861 142.177L20.004 120.385C20.0928 119.472 20.9106 118.811 21.8227 118.915L65.0872 123.869C65.9642 123.969 66.7611 123.361 66.8947 122.489L81.3639 28.0454C81.4926 27.2053 82.24 26.6045 83.0888 26.6587L93.5645 27.3276C94.9947 27.4189 95.8431 25.7672 94.9395 24.6506L76.0411 1.29709C75.4249 0.535638 74.288 0.471609 73.5975 1.15949L51.189 23.4825C50.1994 24.4683 50.8186 26.1671 52.2137 26.2937L60.5714 27.0519C61.5304 27.1389 62.2149 28.0259 62.0552 28.9744L49.5701 103.097C49.4239 103.965 48.6205 104.561 47.7463 104.449L4.48726 98.9534C3.57596 98.8376 2.74983 99.4861 2.6526 100.399Z" fill="#3F3F3F"/>
</g>
</svg>
