<svg width="51" height="50" viewBox="0 0 51 50" fill="none" xmlns="http://www.w3.org/2000/svg">
<g id="Union" filter="url(#filter0_d_2158_923)">
<path fill-rule="evenodd" clip-rule="evenodd" d="M37.7491 21C37.7491 27.6274 32.2089 33 25.3746 33C18.5403 33 13 27.6274 13 21C13 14.3726 18.5403 9 25.3746 9C32.2089 9 37.7491 14.3726 37.7491 21ZM35.1138 21C35.1138 26.216 30.7534 30.4444 25.3746 30.4444C19.9957 30.4444 15.6353 26.216 15.6353 21C15.6353 15.784 19.9957 11.5556 25.3746 11.5556C30.7534 11.5556 35.1138 15.784 35.1138 21Z" fill="url(#paint0_linear_2158_923)"/>
<path fill-rule="evenodd" clip-rule="evenodd" d="M25.3746 30.4444C30.7534 30.4444 35.1138 26.216 35.1138 21C35.1138 15.784 30.7534 11.5556 25.3746 11.5556C19.9957 11.5556 15.6353 15.784 15.6353 21C15.6353 26.216 19.9957 30.4444 25.3746 30.4444ZM31.1558 19.1225C31.6123 18.5729 31.5229 17.7685 30.9562 17.3259C30.3894 16.8832 29.5599 16.9698 29.1034 17.5194L24.6431 22.8892L21.3683 20.4334C20.7926 20.0016 19.9651 20.1042 19.5199 20.6625C19.0747 21.2207 19.1805 22.0232 19.7562 22.4549L23.8752 25.5439C24.5415 26.0436 25.4977 25.9344 26.0261 25.2982L31.1558 19.1225Z" fill="url(#paint1_linear_2158_923)"/>
</g>
<defs>
<filter id="filter0_d_2158_923" x="0" y="0" width="50.749" height="50" filterUnits="userSpaceOnUse" color-interpolation-filters="sRGB">
<feFlood flood-opacity="0" result="BackgroundImageFix"/>
<feColorMatrix in="SourceAlpha" type="matrix" values="0 0 0 0 0 0 0 0 0 0 0 0 0 0 0 0 0 0 127 0" result="hardAlpha"/>
<feOffset dy="4"/>
<feGaussianBlur stdDeviation="6.5"/>
<feComposite in2="hardAlpha" operator="out"/>
<feColorMatrix type="matrix" values="0 0 0 0 0 0 0 0 0 0 0 0 0 0 0 0 0 0 0.25 0"/>
<feBlend mode="normal" in2="BackgroundImageFix" result="effect1_dropShadow_2158_923"/>
<feBlend mode="normal" in="SourceGraphic" in2="effect1_dropShadow_2158_923" result="shape"/>
</filter>
<linearGradient id="paint0_linear_2158_923" x1="10.4563" y1="10" x2="54.367" y2="46.8155" gradientUnits="userSpaceOnUse">
<stop stop-color="#00B1FD"/>
<stop offset="1" stop-color="#FA00FF"/>
</linearGradient>
<linearGradient id="paint1_linear_2158_923" x1="10.4563" y1="10" x2="54.367" y2="46.8155" gradientUnits="userSpaceOnUse">
<stop stop-color="#00B1FD"/>
<stop offset="1" stop-color="#FA00FF"/>
</linearGradient>
</defs>
</svg>
