<svg width="19" height="22" viewBox="0 0 19 22" fill="none" xmlns="http://www.w3.org/2000/svg">
<path id="Vector" d="M1.05556 3.68811H0.7885C0.352556 3.68811 0 3.3345 0 2.89961C0 2.46472 0.352556 2.11111 0.7885 2.11111H6.33333V1.05556C6.33333 0.490833 6.83367 0 7.38889 0H11.6111C12.1663 0 12.6667 0.490833 12.6667 1.05556V2.11111H18.2126C18.6474 2.11111 19 2.46472 19 2.89961C19 3.3345 18.6474 3.68811 18.2126 3.68811H17.9444V19.9806C17.9444 20.6044 17.4716 21.1111 16.8889 21.1111C13.8563 21.1111 5.14372 21.1111 2.11111 21.1111C1.52844 21.1111 1.05556 20.6044 1.05556 19.9806V3.68811ZM16.3611 3.68811H2.63889V19.5278H16.3611V3.68811ZM11.875 6.33333C11.438 6.33333 11.0833 6.688 11.0833 7.125V16.0972C11.0833 16.5342 11.438 16.8889 11.875 16.8889C12.312 16.8889 12.6667 16.5342 12.6667 16.0972V7.125C12.6667 6.688 12.312 6.33333 11.875 6.33333ZM7.125 6.33333C6.688 6.33333 6.33333 6.688 6.33333 7.125V16.0972C6.33333 16.5342 6.688 16.8889 7.125 16.8889C7.562 16.8889 7.91667 16.5342 7.91667 16.0972V7.125C7.91667 6.688 7.562 6.33333 7.125 6.33333ZM11.0833 2.11111V1.58333H7.91667V2.11111H11.0833Z" fill="currentColor"/>
</svg>
