<svg width="14" height="14" viewBox="0 0 14 14" fill="none" xmlns="http://www.w3.org/2000/svg">
<g id="Union">
<path d="M10.4377 5.01918C10.6214 4.63495 10.4589 4.1745 10.0747 3.99073C9.69048 3.80696 9.23002 3.96947 9.04625 4.3537L6.88373 8.87516C6.82573 8.99644 6.65936 9.01208 6.57976 8.90374L5.27222 7.12399C5.02004 6.78075 4.53737 6.70692 4.19413 6.95909C3.85089 7.21126 3.77707 7.69394 4.02924 8.03718L5.33678 9.81693C6.1062 10.8642 7.71444 10.713 8.27515 9.54065L10.4377 5.01918Z" fill="#D9D9D9"/>
<path fill-rule="evenodd" clip-rule="evenodd" d="M14 7C14 10.866 10.866 14 7 14C3.13401 14 0 10.866 0 7C0 3.13401 3.13401 0 7 0C10.866 0 14 3.13401 14 7ZM12.7542 7C12.7542 10.178 10.178 12.7542 7 12.7542C3.82202 12.7542 1.24576 10.178 1.24576 7C1.24576 3.82202 3.82202 1.24576 7 1.24576C10.178 1.24576 12.7542 3.82202 12.7542 7Z" fill="#D9D9D9"/>
</g>
</svg>
