<svg width="24" height="22" viewBox="0 0 24 22" fill="none" xmlns="http://www.w3.org/2000/svg">
<path id="Union" fill-rule="evenodd" clip-rule="evenodd" d="M15.3446 16.7478C13.7214 18.127 11.6294 18.9574 9.34613 18.9574C4.1844 18.9574 0 14.7136 0 9.4787C0 4.24376 4.1844 0 9.34613 0C14.5079 0 18.6923 4.24376 18.6923 9.4787C18.6923 11.2152 18.2319 12.8426 17.4281 14.2422L23.3937 19.0824C24.0903 19.6476 24.2033 20.6785 23.646 21.3851C23.0886 22.0916 22.0721 22.2062 21.3754 21.6409L15.3446 16.7478ZM16.3846 9.4787C16.3846 13.4211 13.2334 16.617 9.34613 16.617C5.45891 16.617 2.30769 13.4211 2.30769 9.4787C2.30769 5.53634 5.45891 2.34042 9.34613 2.34042C13.2334 2.34042 16.3846 5.53634 16.3846 9.4787Z" fill="currentColor" fill-opacity="0.5"/>
</svg>
