<svg width="126" height="120" viewBox="0 0 126 120" fill="none" xmlns="http://www.w3.org/2000/svg">
<path id="Union" fill-rule="evenodd" clip-rule="evenodd" d="M61.5289 3.38368C47.3754 12.3857 28.2785 20.9715 12.1997 25.4986C9.02557 26.3832 5.9555 27.5279 5.48719 27.9962C4.44649 28.9849 2.26102 38.5073 1.22031 46.7809C-1.90179 70.769 1.01217 94.8612 9.44185 115.051C17.8195 135.084 31.4527 151.684 49.3527 163.652C54.6603 167.19 65.9519 173.226 67.2528 173.226C68.5536 173.226 79.8452 167.19 85.1528 163.652C115.333 143.514 132.713 110.94 134.43 71.2373C135.054 56.5635 131.828 30.8582 128.966 27.9962C128.498 27.5279 125.48 26.3832 122.306 25.4986C106.279 20.9715 87.3903 12.4898 72.3522 3.07147C69.6464 1.35431 67.2528 -0.0506346 67.0446 0.00140038C66.8885 0.0534354 64.3908 1.56245 61.5289 3.38368ZM72.8725 9.88805C80.1054 14.259 91.7612 20.139 99.6706 23.4172C106.695 26.2791 120.016 30.9102 122.982 31.4826C125.064 31.8468 125.272 32.4713 126.833 41.3172C128.498 50.9957 129.07 59.6856 128.758 70.1446C128.446 80.4475 127.613 86.7438 125.428 95.954C119.392 121.607 104.406 143.774 83.3836 158.084C77.3475 162.195 68.6577 166.982 67.2007 166.982C65.7958 166.982 58.3027 162.819 51.6422 158.396C30.464 144.295 15.2177 121.867 9.0776 95.954C6.8401 86.5877 6.05957 80.3955 5.74736 69.6243C5.43515 58.853 5.9555 51.5161 7.72469 41.3172C9.02557 33.7201 9.64999 31.6907 10.5866 31.6907C11.9916 31.6907 27.2378 26.5393 33.8463 23.8334C41.9117 20.5032 54.8164 14.0509 61.5289 9.94009C64.3908 8.1709 66.9405 6.71392 67.1487 6.71392C67.3568 6.71392 69.9586 8.1709 72.8725 9.88805ZM62.046 16.3951C51.7431 22.6393 36.0285 29.7161 22.4994 34.2431C18.4407 35.596 14.9023 36.8969 14.5901 37.053C13.9136 37.4693 12.6127 44.39 11.7802 51.9871C10.9997 59.1679 10.9997 73.7897 11.7802 80.3462C15.5267 112.296 30.6169 138.157 54.9692 154.444C60.7451 158.295 66.0527 161.261 67.2495 161.261C69.2789 161.261 81.1949 153.768 87.283 148.72C107.212 132.173 119.232 108.913 122.719 80.3462C123.499 73.8418 123.499 59.2199 122.719 51.9871C121.886 44.39 120.585 37.4693 119.909 37.053C119.597 36.8969 116.058 35.596 112 34.2431C98.5746 29.7681 83.0161 22.7954 72.2449 16.3951C69.5911 14.782 67.2495 13.4811 67.0414 13.5332C66.8853 13.5332 64.6478 14.8341 62.046 16.3951ZM75.0027 39.4466C78.8533 41.3199 81.1429 43.7135 83.0682 47.8243C84.369 50.5821 84.4211 51.1025 84.5772 61.7176L84.7853 72.8011H80.3103H75.8873L75.7312 62.1859C75.5751 50.374 75.471 50.0097 71.6725 47.408C68.1341 45.0144 62.8786 46.2112 60.0166 50.0618C59.028 51.4147 58.9239 52.3513 58.7678 62.1859L58.6117 72.8011H54.1887H49.7137L49.9218 61.7176C50.078 51.1025 50.13 50.5821 51.4309 47.8243C53.148 44.1298 55.0733 41.8923 57.9352 40.2271C63.6071 36.8969 69.3309 36.6367 75.0027 39.4466ZM91.0295 76.8078C91.9141 77.5883 91.9661 78.8892 91.9661 96.3209C91.9661 114.273 91.9141 115.001 90.9254 115.99C89.9368 116.979 89.2083 117.031 67.2495 117.031C45.2907 117.031 44.5622 116.979 43.5736 115.99C42.5849 115.001 42.5329 114.273 42.5329 96.3729C42.5329 79.8258 42.6369 77.7444 43.4175 76.8598C44.198 75.9752 45.655 75.9232 67.1454 75.9232C87.7513 75.9232 90.1449 76.0272 91.0295 76.8078ZM63.5561 92.9362C61.7869 90.8027 61.7869 87.4725 63.6601 85.5992C65.6375 83.6739 68.8636 83.6739 70.7889 85.7033C72.6622 87.6806 72.7142 90.8027 70.945 92.9882L69.6441 94.4972L70.3726 99.6487C71.2052 105.633 70.9971 106.101 67.1985 106.101C64.6488 106.101 63.2438 105.008 63.6081 103.343C63.7122 102.719 64.0764 100.481 64.3366 98.3478C64.8049 94.6533 64.8049 94.3932 63.5561 92.9362Z" fill="#3F3F3F"/>
</svg>
