<svg width="119" height="114" viewBox="0 0 119 114" fill="none" xmlns="http://www.w3.org/2000/svg">
<g id="Union">
<path d="M123.6 88.4979C127.873 86.0894 127.873 79.9106 123.6 77.5021L31.3104 25.4825C27.1272 23.1247 21.9642 26.1618 21.9642 30.9805L21.9642 135.02C21.9642 139.838 27.1272 142.875 31.3104 140.517L123.6 88.4979Z" fill="#3F3F3F"/>
<path fill-rule="evenodd" clip-rule="evenodd" d="M141.185 62.8051C156.938 71.6182 156.938 94.3818 141.185 103.195L34.2057 163.046C18.8684 171.627 -7.67371e-07 160.487 0 142.851L5.20851e-06 23.1488C5.97589e-06 5.51302 18.8683 -5.62678 34.2057 2.95389L141.185 62.8051ZM135.079 92.1795L28.099 152.031C21.1275 155.931 12.551 150.867 12.551 142.851L12.551 23.1488C12.551 15.1325 21.1275 10.069 28.099 13.9693L135.079 73.8205C142.239 77.8265 142.239 88.1736 135.079 92.1795Z" fill="#3F3F3F"/>
</g>
</svg>
