<svg width="143" height="113" viewBox="0 0 143 113" fill="none" xmlns="http://www.w3.org/2000/svg">
<path d="M16.4286 13.4321C7.35515 13.4321 0 20.9499 0 30.2222V119.21C0 128.482 7.35515 136 16.4286 136H144.571C153.645 136 161 128.482 161 119.21V112.494H111.714C95.3824 112.494 82.1429 98.9633 82.1429 82.2716C82.1429 65.5799 95.3824 52.0494 111.714 52.0494H161V30.2222C161 20.9499 153.645 13.4321 144.571 13.4321H16.4286Z" fill="#3F3F3F"/>
<path fill-rule="evenodd" clip-rule="evenodd" d="M111.714 62.1235H161V102.42H111.714C100.826 102.42 92 93.3983 92 82.2716C92 71.1449 100.826 62.1235 111.714 62.1235ZM111.714 95.7037C118.973 95.7037 124.857 89.6894 124.857 82.2716C124.857 74.8538 118.973 68.8395 111.714 68.8395C104.456 68.8395 98.5714 74.8538 98.5714 82.2716C98.5714 89.6894 104.456 95.7037 111.714 95.7037Z" fill="#3F3F3F"/>
<path d="M23 10.0741C23 4.51032 27.4132 0 32.8571 0H124.857C130.301 0 134.714 4.51032 134.714 10.0741H23Z" fill="#3F3F3F"/>
</svg>
