<svg width="91" height="54" viewBox="0 0 91 54" fill="none" xmlns="http://www.w3.org/2000/svg">
<path d="M37.4961 41.2495L4.49026 42.0251C2.46486 42.0727 0.861533 40.4694 0.909131 38.444C0.956728 36.4186 2.63723 34.7381 4.66263 34.6905L28.8148 34.1229L7.0735 12.3816C5.67498 10.9831 5.72955 8.66108 7.19538 7.19525C8.66121 5.72941 10.9832 5.67484 12.3817 7.07336L34.123 28.8147L34.6906 4.66249C34.7382 2.63709 36.4187 0.956594 38.4441 0.908993C40.4695 0.861399 42.0729 2.46473 42.0253 4.49013L41.2496 37.496C41.202 39.5214 39.5215 41.2019 37.4961 41.2495Z" fill="white"/>
<path d="M9.57295 54.5819C9.31178 51.1295 13.3824 49.529 15.7835 51.93C16.4671 52.6137 16.862 53.5324 16.9608 54.5121C17.6777 61.6267 20.7101 68.4842 26.0999 73.874C38.8723 86.6464 59.8873 86.1805 73.034 73.0338C86.1806 59.8871 86.6465 38.8721 73.8741 26.0997C68.4844 20.71 61.6269 17.6776 54.5122 16.9606C53.5325 16.8619 52.6138 16.467 51.9302 15.7834C49.5291 13.3823 51.1297 9.31164 54.582 9.57281C63.6247 10.2569 72.3769 13.986 79.1824 20.7915C94.7079 36.317 94.2226 61.9741 78.0984 78.0983C61.9743 94.2225 36.3171 94.7078 20.7916 79.1822C13.9861 72.3768 10.257 63.6246 9.57295 54.5819Z" fill="white" />
</svg>
