<svg width="1391" height="754" viewBox="0 0 1391 754" fill="none" xmlns="http://www.w3.org/2000/svg">
<path d="M10.0284 0.216797C8.92385 0.216797 8.02842 1.11223 8.02842 2.2168C8.02842 3.32137 8.92385 4.2168 10.0284 4.2168V0.216797ZM1254.4 2.2168V4.2168V2.2168ZM140.092 368.76V370.76V368.76ZM1371.82 742.234L1351.82 730.687V753.781L1371.82 742.234ZM10.0284 4.2168H1254.4V0.216797H10.0284V4.2168ZM1254.4 4.2168C1300 4.2168 1333.41 26.6965 1355.29 60.5745C1377.23 94.5229 1387.58 139.923 1386.8 185.454C1386.01 230.982 1374.09 276.409 1351.75 310.389C1329.43 344.323 1296.8 366.76 1254.4 366.76V370.76C1298.44 370.76 1332.21 347.378 1355.09 312.586C1377.94 277.839 1390 231.63 1390.79 185.523C1391.59 139.418 1381.12 93.1822 1358.65 58.4038C1336.14 23.5549 1301.55 0.216795 1254.4 0.216797V4.2168ZM1254.4 366.76H140.092V370.76H1254.4V366.76ZM140.092 366.76C93.2294 366.76 58.2449 390.546 35.0975 426.022C11.9897 461.438 0.637491 508.53 0.791333 555.503C0.945176 602.477 12.606 649.564 35.7872 684.974C59.005 720.44 93.8325 744.234 140.092 744.234V740.234C95.4294 740.234 61.7594 717.344 39.1338 682.783C16.4717 648.166 4.94326 601.885 4.79131 555.49C4.63936 509.095 15.8648 462.819 38.4475 428.208C60.9905 393.658 94.8092 370.76 140.092 370.76V366.76ZM140.092 744.234H1353.82V740.234H140.092V744.234Z" fill="url(#paint0_linear_796_1964)"/>
<defs>
<linearGradient id="paint0_linear_796_1964" x1="3.09713" y1="372.021" x2="1388.54" y2="372.021" gradientUnits="userSpaceOnUse">
<stop stop-color="#001A2D"/>
<stop offset="0.307292" stop-color="#3B6CFF"/>
<stop offset="0.71875" stop-color="#CE09FF"/>
<stop offset="1" stop-color="#2B0032"/>
</linearGradient>
</defs>
</svg>
