<svg width="119" height="94" viewBox="0 0 119 94" fill="none" xmlns="http://www.w3.org/2000/svg">
<g id="Vector" filter="url(#filter0_d_1465_2611)">
<path d="M19.753 118.605C19.168 117.556 19.5489 116.229 20.6039 115.64L34.6125 107.829C35.6675 107.241 36.997 107.614 37.5821 108.664L57.0034 143.494C57.5885 144.543 57.2075 145.87 56.1525 146.459L42.1439 154.27C41.0889 154.858 39.7594 154.485 39.1743 153.435L19.753 118.605Z" fill="#3E3E3E" fill-opacity="0.35" shape-rendering="crispEdges"/>
<path d="M58.7919 116.761C58.2069 115.712 58.5878 114.384 59.6429 113.796L73.6514 105.985C74.7064 105.397 76.036 105.77 76.621 106.82L87.5676 126.451C88.1527 127.5 87.7717 128.828 86.7167 129.416L72.7081 137.227C71.6531 137.816 70.3236 137.442 69.7385 136.393L58.7919 116.761Z" fill="#3E3E3E" fill-opacity="0.35" shape-rendering="crispEdges"/>
<path d="M81.5181 84.1649C80.933 83.1156 81.314 81.7882 82.369 81.1999L96.3776 73.3887C97.4326 72.8004 98.7621 73.1741 99.3472 74.2233L118.769 109.053C119.354 110.103 118.973 111.43 117.918 112.018L103.909 119.83C102.854 120.418 101.524 120.044 100.939 118.995L81.5181 84.1649Z" fill="#3E3E3E" fill-opacity="0.35" shape-rendering="crispEdges"/>
<path d="M98.5192 47.2893C97.9341 46.2401 98.3151 44.9126 99.3701 44.3244L113.379 36.5131C114.434 35.9248 115.763 36.2985 116.348 37.3478L147.422 93.0759C148.007 94.1251 147.627 95.4526 146.572 96.0409L132.563 103.852C131.508 104.44 130.178 104.067 129.593 103.017L98.5192 47.2893Z" fill="#3E3E3E" fill-opacity="0.35" shape-rendering="crispEdges"/>
<path d="M12.6892 70.0795C9.89301 77.4231 5.16854 90.199 4.67939 92.6641C4.63547 92.8854 4.69561 93.0984 4.80525 93.2951L13.6932 109.235C14.2971 110.318 15.9006 110.188 16.3325 109.022L23.0476 90.8834C23.3289 90.1235 24.1777 89.7364 24.9351 90.0226L60.8584 103.598C61.5866 103.873 62.4056 103.527 62.716 102.812L96.3472 25.347C96.6463 24.6579 97.4213 24.3067 98.1358 24.5364L106.953 27.3709C108.157 27.7578 109.255 26.5317 108.733 25.3837L97.8073 1.37189C97.4511 0.58898 96.4922 0.288681 95.7463 0.72645L71.5417 14.9331C70.4727 15.5604 70.6207 17.1439 71.7865 17.5533L78.7708 20.0063C79.5722 20.2878 79.9587 21.1926 79.6085 21.9675L52.2471 82.5199C51.9268 83.2289 51.1049 83.5639 50.3815 83.2802L14.5849 69.2427C13.8308 68.9469 12.9777 69.3218 12.6892 70.0795Z" fill="#3E3E3E" fill-opacity="0.35" shape-rendering="crispEdges"/>
</g>
<defs>
<filter id="filter0_d_1465_2611" x="0.664917" y="0.524414" width="151.032" height="162.024" filterUnits="userSpaceOnUse" color-interpolation-filters="sRGB">
<feFlood flood-opacity="0" result="BackgroundImageFix"/>
<feColorMatrix in="SourceAlpha" type="matrix" values="0 0 0 0 0 0 0 0 0 0 0 0 0 0 0 0 0 0 127 0" result="hardAlpha"/>
<feOffset dy="4"/>
<feGaussianBlur stdDeviation="2"/>
<feComposite in2="hardAlpha" operator="out"/>
<feColorMatrix type="matrix" values="0 0 0 0 0 0 0 0 0 0 0 0 0 0 0 0 0 0 0.25 0"/>
<feBlend mode="normal" in2="BackgroundImageFix" result="effect1_dropShadow_1465_2611"/>
<feBlend mode="normal" in="SourceGraphic" in2="effect1_dropShadow_1465_2611" result="shape"/>
</filter>
</defs>
</svg>
