<svg width="29" height="35" viewBox="0 0 29 35" fill="none" xmlns="http://www.w3.org/2000/svg">
<g id="Union">
<path d="M13.5679 0.366116L5.17905 8.32103C4.66427 8.80919 4.66427 9.60064 5.17905 10.0888C5.69383 10.5769 6.52846 10.5769 7.04324 10.0888L13.1818 4.26775V14.9999C13.1818 15.6903 13.772 16.2499 14.5 16.2499C15.228 16.2499 15.8182 15.6903 15.8182 14.9999V4.26775L21.9568 10.0888C22.4715 10.5769 23.3062 10.5769 23.821 10.0888C24.3357 9.60064 24.3357 8.80919 23.821 8.32104L15.4321 0.366116C14.9173 -0.122039 14.0827 -0.122039 13.5679 0.366116Z" fill="white" fill-opacity="0.1"/>
<path d="M3.32303 12.2826C4.11549 11.366 5.52381 11.9757 5.52381 13.1609C5.52381 13.4984 5.39373 13.8226 5.17496 14.0888C3.58624 16.0218 2.63636 18.4627 2.63636 21.1233C2.63636 27.4282 7.97065 32.5 14.5 32.5C21.0294 32.5 26.3636 27.4282 26.3636 21.1233C26.3636 18.4627 25.4138 16.0218 23.825 14.0888C23.6063 13.8226 23.4762 13.4984 23.4762 13.1609C23.4762 11.9757 24.8845 11.366 25.677 12.2826C27.7526 14.6833 29 17.7639 29 21.1233C29 28.7872 22.5081 35 14.5 35C6.49187 35 0 28.7872 0 21.1233C0 17.7639 1.24737 14.6833 3.32303 12.2826Z" fill="white" fill-opacity="0.1"/>
</g>
</svg>
