<svg width="28" height="27" viewBox="0 0 28 27" fill="none" xmlns="http://www.w3.org/2000/svg">
<g id="Intersect">
<path d="M8.34862 24.1491C8.47171 24.9662 7.68441 25.619 6.87618 25.3699L0.820013 23.5055C-0.0498902 23.2376 -0.288051 22.142 0.399802 21.5719L2.02956 20.2207C-0.189282 16.529 -0.603515 11.8979 1.33356 7.75523C4.15059 1.73105 10.9875 -1.22306 17.3706 0.474897C18.0228 0.64829 18.3235 1.36924 18.0451 1.96457C17.8006 2.48743 17.1842 2.74027 16.6084 2.59748C11.3434 1.28925 5.75182 3.75164 3.43203 8.71238C1.87917 12.0331 2.13961 15.7308 3.80768 18.7461L5.53376 17.3149C6.22162 16.7448 7.29395 17.1485 7.42641 18.0278L8.34862 24.1491Z" fill="white" fill-opacity="0.1"/>
<path d="M25.7377 6.6467L27.5196 5.42168C28.2578 4.91439 28.1205 3.80371 27.2775 3.46176L21.4086 1.07882C20.6254 0.761022 19.7806 1.34132 19.8285 2.1648L20.1882 8.33446C20.2398 9.22075 21.2723 9.71623 22.0104 9.20894L23.8591 7.93829C25.6879 11.0084 26.0237 14.8498 24.4162 18.2876C22.0963 23.2489 16.5048 25.7107 11.2398 24.4025C10.6641 24.2597 10.0475 24.5126 9.80299 25.0354C9.52475 25.6308 9.8254 26.3517 10.4775 26.5251C16.8606 28.2231 23.6977 25.2689 26.5146 19.2448C28.475 15.0522 28.0271 10.3599 25.7377 6.6467Z" fill="white" fill-opacity="0.1"/>
</g>
</svg>
