<svg width="28" height="34" viewBox="0 0 28 34" fill="none" xmlns="http://www.w3.org/2000/svg">
<g id="Union">
<path d="M13.1 15.43L5.00046 7.70236C4.50343 7.22816 4.50343 6.45932 5.00046 5.98511C5.49749 5.5109 6.30334 5.5109 6.80037 5.98511L12.7273 11.6398V1.21428C12.7273 0.543652 13.2971 0 14 0C14.7029 0 15.2727 0.543652 15.2727 1.21428V11.6398L21.1996 5.98511C21.6967 5.5109 22.5025 5.5109 22.9995 5.98511C23.4966 6.45931 23.4966 7.22815 22.9995 7.70236L14.9 15.43C14.4029 15.9042 13.5971 15.9042 13.1 15.43Z" fill="white" fill-opacity="0.1"/>
<path d="M3.20845 11.9317C3.97358 11.0413 5.33333 11.6335 5.33333 12.7849C5.33333 13.1127 5.20774 13.4277 4.99651 13.6863C3.46258 15.564 2.54545 17.9352 2.54545 20.5198C2.54545 26.6445 7.6958 31.5714 14 31.5714C20.3042 31.5714 25.4545 26.6445 25.4545 20.5198C25.4545 17.9352 24.5374 15.564 23.0035 13.6863C22.7923 13.4277 22.6667 13.1127 22.6667 12.7849C22.6667 11.6335 24.0264 11.0413 24.7916 11.9317C26.7956 14.2638 28 17.2564 28 20.5198C28 27.9647 21.732 34 14 34C6.26801 34 0 27.9647 0 20.5198C0 17.2564 1.20435 14.2638 3.20845 11.9317Z" fill="white" fill-opacity="0.1"/>
</g>
</svg>
