<svg width="51" height="44" viewBox="0 0 51 44" fill="none" xmlns="http://www.w3.org/2000/svg">
<g id="cardano-ada-logo 1" clip-path="url(#clip0_1594_2040)">
<g id="Layer_1-2">
<path id="Vector" d="M14.301 21.547C14.1952 23.2883 15.6093 24.7792 17.4463 24.8794C17.5124 24.8794 17.5785 24.8794 17.6446 24.8794C19.4948 24.8794 20.9882 23.4637 20.975 21.7098C20.975 19.9559 19.4816 18.5403 17.6314 18.5528C15.8604 18.5528 14.3935 19.8682 14.301 21.547Z" fill="white"/>
<path id="Vector_2" d="M1.85178 20.7327C1.25707 20.6951 0.741652 21.1336 0.71522 21.6974C0.688788 22.2611 1.13813 22.7497 1.73284 22.7748C2.32755 22.8123 2.82976 22.3739 2.8694 21.8101C2.90905 21.2464 2.4465 20.7703 1.85178 20.7327Z" fill="white"/>
<path id="Vector_3" d="M14.0895 3.18108C14.6181 2.93052 14.8296 2.30413 14.5653 1.80301C14.301 1.3019 13.6402 1.10145 13.1115 1.35201C12.5829 1.60257 12.3714 2.21643 12.6358 2.71754C12.9001 3.23119 13.5477 3.44416 14.0895 3.18108Z" fill="white"/>
<path id="Vector_4" d="M17.4728 8.78135C18.2922 8.39298 18.6226 7.44087 18.2129 6.66414C17.8032 5.88741 16.7988 5.57422 15.9794 5.96258C15.16 6.35094 14.8296 7.30306 15.2393 8.07979C15.649 8.85651 16.6534 9.16971 17.4728 8.78135Z" fill="white"/>
<path id="Vector_5" d="M6.08084 12.6266C6.7152 13.015 7.56101 12.8521 7.98392 12.2508C8.39361 11.6494 8.22181 10.8477 7.58745 10.4468C6.95309 10.0584 6.10727 10.2213 5.68436 10.8226C5.26146 11.4239 5.44648 12.2382 6.08084 12.6266Z" fill="white"/>
<path id="Vector_6" d="M8.1028 20.1687C7.17769 20.1186 6.39795 20.7825 6.34509 21.6595C6.29223 22.5364 6.99267 23.2756 7.91778 23.3257C8.84289 23.3758 9.62262 22.7118 9.67549 21.8349C9.72835 20.9705 9.02791 20.2188 8.1028 20.1687Z" fill="white"/>
<path id="Vector_7" d="M6.2659 30.7797C5.59189 31.1054 5.31436 31.8821 5.65797 32.5336C6.00158 33.1725 6.82096 33.4356 7.50819 33.1099C8.18219 32.7841 8.45973 32.0074 8.11612 31.356C7.7725 30.717 6.9399 30.4539 6.2659 30.7797Z" fill="white"/>
<path id="Vector_8" d="M12.7415 16.8986C13.6534 17.4624 14.8693 17.2243 15.4508 16.3599C16.0455 15.4955 15.7944 14.3429 14.8825 13.7917C13.9706 13.228 12.7547 13.466 12.1732 14.3304C11.5785 15.1823 11.8296 16.3349 12.7415 16.8986Z" fill="white"/>
<path id="Vector_9" d="M33.2923 8.6555C34.0588 9.13156 35.1029 8.93111 35.6051 8.2045C36.1073 7.47788 35.8958 6.48818 35.1293 6.01212C34.3628 5.53607 33.3187 5.73651 32.8165 6.46313C32.3011 7.20227 32.5126 8.17944 33.2923 8.6555Z" fill="white"/>
<path id="Vector_10" d="M36.702 3.08042C37.2042 3.39361 37.865 3.25581 38.1954 2.77975C38.5258 2.30369 38.3804 1.6773 37.8782 1.3641C37.376 1.0509 36.7152 1.18871 36.3848 1.65224C36.0676 2.1283 36.213 2.76722 36.702 3.08042Z" fill="white"/>
<path id="Vector_11" d="M33.5432 18.5277C31.7062 18.4275 30.1203 19.768 30.0278 21.5094C29.9221 23.2507 31.3361 24.7541 33.1732 24.8418C33.2392 24.8418 33.3053 24.8418 33.3582 24.8418C35.1952 24.8418 36.6886 23.4261 36.6886 21.6722C36.7018 20.006 35.3141 18.6154 33.5432 18.5277Z" fill="white"/>
<path id="Vector_12" d="M18.5698 16.6738C19.1381 17.7387 20.2879 18.4152 21.5566 18.4152C23.3936 18.4152 24.887 16.9996 24.887 15.2457C24.887 14.7571 24.7681 14.2685 24.5302 13.8175C23.6976 12.2515 21.6888 11.6251 20.05 12.4144C18.398 13.2162 17.7372 15.1204 18.5698 16.6738Z" fill="white"/>
<path id="Vector_13" d="M44.7239 12.6273C45.3979 12.3016 45.6622 11.5123 45.3186 10.8734C44.975 10.2345 44.1424 9.98391 43.4683 10.3096C42.7943 10.6354 42.53 11.4121 42.8604 12.051C43.2172 12.6899 44.0366 12.953 44.7239 12.6273Z" fill="white"/>
<path id="Vector_14" d="M36.2658 13.6289C35.3011 14.0924 34.9046 15.2074 35.3936 16.1219C35.8826 17.0365 37.0588 17.4123 38.0235 16.9488C38.9883 16.4852 39.3848 15.3703 38.8958 14.4557C38.4068 13.5412 37.2306 13.1779 36.2658 13.6289Z" fill="white"/>
<path id="Vector_15" d="M25.3627 2.60472C26.116 2.6423 26.7636 2.09107 26.8165 1.37699C26.8693 0.662899 26.2746 0.0490342 25.5213 -0.00107722C24.768 -0.0386608 24.1205 0.500037 24.0676 1.21412C24.0279 1.94074 24.6094 2.5546 25.3627 2.60472Z" fill="white"/>
<path id="Vector_16" d="M25.3495 10.785C26.4332 10.8476 27.3583 10.0584 27.4111 9.03107C27.4772 8.00379 26.6446 7.12684 25.5609 7.07673C24.4772 7.01409 23.5521 7.80334 23.4992 8.83063C23.4464 9.85791 24.2658 10.7349 25.3495 10.785Z" fill="white"/>
<path id="Vector_17" d="M14.724 29.7775C15.6887 29.314 16.0852 28.199 15.5962 27.2845C15.1072 26.3699 13.931 25.9941 12.9663 26.4576C12.0015 26.9212 11.605 28.0361 12.094 28.9507C12.583 29.8652 13.7592 30.241 14.724 29.7775Z" fill="white"/>
<path id="Vector_18" d="M26.6181 13.5043C25.6137 14.9701 26.0366 16.9245 27.5829 17.8766C29.1291 18.8287 31.1908 18.4278 32.1952 16.962C33.1996 15.4963 32.7767 13.5419 31.2305 12.5898C30.6886 12.2516 30.0542 12.0762 29.4067 12.0762C28.2833 12.0762 27.2393 12.6149 26.6181 13.5043Z" fill="white"/>
<path id="Vector_19" d="M32.4201 26.7335C31.5875 25.1675 29.5787 24.5411 27.9399 25.3304C26.2879 26.1196 25.6271 28.0239 26.4597 29.5773C27.2923 31.1433 29.3011 31.7697 30.9399 30.9805C32.5787 30.2037 33.2527 28.3246 32.4333 26.7586C32.4333 26.746 32.4333 26.746 32.4201 26.7335Z" fill="white"/>
<path id="Vector_20" d="M38.2482 26.5075C37.3363 25.9438 36.1205 26.1818 35.539 27.0462C34.9442 27.9107 35.1953 29.0632 36.1072 29.6144C37.0191 30.1782 38.235 29.9402 38.8165 29.0757C39.4112 28.2239 39.1601 27.0713 38.2482 26.5075Z" fill="white"/>
<path id="Vector_21" d="M44.6447 21.7597C44.6976 20.8827 43.9971 20.1436 43.072 20.0935C42.1469 20.0434 41.3672 20.7073 41.3143 21.5843C41.2615 22.4612 41.9619 23.2004 42.887 23.2505C43.7989 23.3006 44.5919 22.6241 44.6447 21.7597Z" fill="white"/>
<path id="Vector_22" d="M49.2571 20.6321C48.6623 20.5945 48.1469 21.033 48.1205 21.5968C48.0941 22.1605 48.5434 22.6491 49.1381 22.6742C49.7328 22.7118 50.235 22.2733 50.2747 21.7095C50.3011 21.1458 49.8518 20.6697 49.2571 20.6321Z" fill="white"/>
<path id="Vector_23" d="M44.909 30.7798C44.2746 30.3914 43.4288 30.5543 43.0059 31.1556C42.5962 31.7569 42.768 32.5587 43.4024 32.9596C44.0368 33.348 44.8826 33.1851 45.3055 32.5838C45.7284 31.9824 45.5434 31.1681 44.909 30.7798Z" fill="white"/>
<path id="Vector_24" d="M14.2745 40.326C13.7723 40.0128 13.1115 40.1506 12.7811 40.6142C12.4507 41.0902 12.5961 41.7166 13.085 42.0298C13.5873 42.343 14.248 42.2052 14.5784 41.7417C14.9221 41.2781 14.7767 40.6392 14.2745 40.326Z" fill="white"/>
<path id="Vector_25" d="M36.9001 40.2254C36.3715 40.4759 36.16 41.1023 36.4243 41.6034C36.6887 42.1045 37.3494 42.305 37.8781 42.0544C38.4067 41.8039 38.6182 41.19 38.3539 40.6889C38.0895 40.1752 37.442 39.9623 36.9001 40.2254Z" fill="white"/>
<path id="Vector_26" d="M24.3715 29.9025C25.3759 28.4368 24.953 26.4824 23.4067 25.5178C21.8605 24.5657 19.7988 24.9665 18.7812 26.4323C17.7636 27.8981 18.1997 29.8524 19.7459 30.8171C20.2878 31.1553 20.9221 31.3307 21.5697 31.3307C22.7063 31.3432 23.7503 30.8045 24.3715 29.9025Z" fill="white"/>
<path id="Vector_27" d="M17.6975 34.7514C16.931 34.2753 15.8869 34.4758 15.3847 35.2024C14.8825 35.929 15.094 36.9187 15.8605 37.3948C16.627 37.8708 17.671 37.6704 18.1732 36.9438C18.6887 36.2171 18.4772 35.2274 17.6975 34.7514Z" fill="white"/>
<path id="Vector_28" d="M25.4817 40.8016C24.7284 40.764 24.0808 41.3153 24.0279 42.0293C23.9751 42.7434 24.5698 43.3573 25.3231 43.4074C26.0764 43.445 26.724 42.9063 26.7768 42.1922C26.8165 41.4656 26.235 40.8517 25.4817 40.8016Z" fill="white"/>
<path id="Vector_29" d="M25.4948 32.6216C24.4111 32.559 23.486 33.3483 23.4331 34.3755C23.367 35.4028 24.1996 36.2798 25.2833 36.3299C26.367 36.38 27.2921 35.6033 27.345 34.576C27.4111 33.5612 26.5785 32.6718 25.4948 32.6216Z" fill="white"/>
<path id="Vector_30" d="M33.517 34.6263C32.6976 35.0272 32.3672 35.9793 32.7901 36.756C33.213 37.5327 34.2174 37.8459 35.0368 37.445C35.8562 37.0567 36.1866 36.1046 35.7769 35.3278C35.354 34.5511 34.3496 34.2254 33.517 34.6263Z" fill="white"/>
</g>
</g>
<defs>
<clipPath id="clip0_1594_2040">
<rect width="49.5594" height="43.409" fill="white" transform="translate(0.715088 -0.000976562)"/>
</clipPath>
</defs>
</svg>
