<svg width="28" height="28" viewBox="0 0 28 28" fill="none" xmlns="http://www.w3.org/2000/svg">
<g id="Union">
<path d="M14.2295 6.07146C14.9324 6.07146 15.5022 6.64128 15.5022 7.34418V12.9569H21.5738C22.2767 12.9569 22.8465 13.5267 22.8465 14.2296C22.8465 14.9325 22.2767 15.5023 21.5738 15.5023H15.5022V21.5737C15.5022 22.2766 14.9324 22.8464 14.2295 22.8464C13.5266 22.8464 12.9568 22.2766 12.9568 21.5737V15.5023H7.34428C6.64137 15.5023 6.07155 14.9325 6.07155 14.2296C6.07155 13.5267 6.64137 12.9569 7.34428 12.9569H12.9568V7.34418C12.9568 6.64128 13.5266 6.07146 14.2295 6.07146Z" fill="white" fill-opacity="0.1"/>
<path fill-rule="evenodd" clip-rule="evenodd" d="M14 28C21.732 28 28 21.732 28 14C28 6.26801 21.732 0 14 0C6.26801 0 0 6.26801 0 14C0 21.732 6.26801 28 14 28ZM14 25.4545C20.3262 25.4545 25.4545 20.3262 25.4545 14C25.4545 7.67383 20.3262 2.54545 14 2.54545C7.67383 2.54545 2.54545 7.67383 2.54545 14C2.54545 20.3262 7.67383 25.4545 14 25.4545Z" fill="white" fill-opacity="0.1"/>
</g>
</svg>
