<svg width="46" height="44" viewBox="0 0 46 44" fill="none" xmlns="http://www.w3.org/2000/svg">
<g id="Union">
<path d="M22.7721 7.59707C22.2507 7.65659 21.6955 7.99811 21.3129 8.4967C21.2515 8.57548 20.6052 9.51141 19.8776 10.578C19.471 11.1711 18.9364 11.9527 18.4274 12.6973L17.34 14.2896C16.7222 15.1922 15.1401 17.5068 13.6968 19.6184L13.3471 20.1301C11.8166 22.3667 10.5517 24.2215 10.5339 24.2541C10.4605 24.3924 10.5042 24.5265 10.643 24.5823C10.7143 24.6129 12.3459 24.6149 15.9125 24.5917L17.8554 24.5784L17.9823 24.5342C18.1429 24.4766 18.3808 24.3233 18.466 24.2198C18.5037 24.1756 19.0152 23.4276 19.604 22.5566L25.8411 13.3401C26.2554 12.7281 26.6142 12.1834 26.64 12.1315C26.6928 12.0196 26.7195 11.8949 26.7201 11.7663C26.7206 11.6677 26.7058 11.567 26.6757 11.468C26.6647 11.4331 26.5903 11.3119 26.4368 11.0808C26.2847 10.8513 26.0548 10.5138 25.732 10.0448C24.5802 8.37397 24.5187 8.28951 24.2114 8.048C23.7693 7.69881 23.2697 7.54151 22.7721 7.59707Z" fill="url(#paint0_linear_1617_1857)"/>
<path d="M27.1487 12.6866C27.1331 12.6987 27.1192 12.7108 27.1097 12.7207C27.0384 12.7956 23.6106 17.8787 23.561 17.9842C23.4659 18.1874 23.4539 18.4541 23.5333 18.6729C23.5689 18.7667 24.7029 20.4529 30.3908 28.858C30.9202 29.6388 31.4733 30.4577 31.622 30.6802C31.9332 31.1464 32.0562 31.2768 32.2782 31.3862L32.3108 31.402L32.3679 31.4294L32.3813 31.4353C32.5741 31.5181 32.8052 31.5173 34.9754 31.5097L35.2203 31.5089C37.8295 31.5013 37.83 31.5013 38.1689 31.4136L38.1861 31.4092C38.2575 31.3919 38.4161 31.3287 38.541 31.2711C38.7353 31.181 38.7868 31.1464 38.9177 31.0197C39.1715 30.7723 39.2765 30.5211 39.2765 30.1606C39.2765 29.9458 39.229 29.7077 39.1457 29.5064L39.1272 29.4603L39.1127 29.424C39.0123 29.1785 38.857 28.9538 35.4662 24.0494L34.0568 22.0109L34.0485 21.999L34.044 21.9926L32.4165 19.6377C31.8078 18.7561 30.9825 17.5609 30.3056 16.582L30.277 16.5405C27.7197 12.8368 27.6289 12.7054 27.5459 12.6575C27.4488 12.6 27.312 12.5903 27.2228 12.6382C27.2001 12.6499 27.1723 12.6684 27.1487 12.6866Z" fill="url(#paint1_linear_1617_1857)"/>
<path d="M22.6113 19.3369C22.645 19.3026 22.7005 19.2623 22.7322 19.2468C22.869 19.1875 23.0316 19.2335 23.1406 19.3601C23.1723 19.3984 23.6224 20.0526 25.7892 23.2231C26.1918 23.8121 26.4753 24.2455 26.4891 24.2934C26.5208 24.4048 26.4812 24.4949 26.3781 24.5448C26.3028 24.5811 26.2155 24.5811 22.8908 24.5811C19.5899 24.5811 19.4789 24.5794 19.4055 24.5448C19.2707 24.4796 19.239 24.3529 19.3183 24.2052C19.3976 24.0595 22.5439 19.4061 22.6113 19.3369Z" fill="url(#paint2_linear_1617_1857)"/>
<path d="M21.4893 25.1945C21.4854 25.2002 19.5365 25.2059 17.1595 25.2078C14.7844 25.2118 12.2824 25.2175 11.6004 25.2232C10.9136 25.2288 10.6039 25.2318 10.4443 25.2409C10.333 25.2471 10.2946 25.2562 10.2523 25.2713C10.0997 25.3229 9.86176 25.4842 9.76859 25.5973C9.72348 25.6533 9.37821 26.1929 8.97538 26.8305C8.38731 27.7613 7.67654 28.9007 7.59773 29.0498C7.41332 29.401 7.31818 29.7386 7.31818 30.0436C7.31818 30.2851 7.35979 30.4579 7.46686 30.6631C7.70078 31.1118 8.19843 31.3939 8.90423 31.4744C9.01124 31.4879 11.4815 31.4973 15.7637 31.5052L21.1789 31.5146C23.3722 31.5188 25.4169 31.523 26.6895 31.5262C29.7485 31.5339 30.948 31.5299 31.0074 31.5146C31.1978 31.4647 31.2532 31.3324 31.1542 31.1521C31.1244 31.0965 30.6129 30.3369 30.0182 29.4642C29.5191 28.7335 28.8539 27.7544 28.4034 27.0911L28.1704 26.748C27.31 25.4802 27.2664 25.4247 26.9988 25.3019C26.9095 25.2617 26.7946 25.2175 26.741 25.2059C26.6736 25.1906 25.9222 25.1849 24.0725 25.1849C23.3056 25.1849 22.6131 25.1866 22.1386 25.1888C21.7374 25.1906 21.4921 25.1928 21.4893 25.1945Z" fill="url(#paint3_linear_1617_1857)"/>
<path fill-rule="evenodd" clip-rule="evenodd" d="M23 44C35.7026 44 46 34.1503 46 22C46 9.84972 35.7026 0 23 0C10.2974 0 0 9.84972 0 22C0 34.1503 10.2974 44 23 44ZM23 41.0668C34.0089 41.0668 42.9334 32.5303 42.9334 22C42.9334 11.4697 34.0089 2.93323 23 2.93323C11.9911 2.93323 3.06668 11.4697 3.06668 22C3.06668 32.5303 11.9911 41.0668 23 41.0668Z" fill="url(#paint4_linear_1617_1857)"/>
</g>
<defs>
<linearGradient id="paint0_linear_1617_1857" x1="11.6146" y1="11.0773" x2="36.2193" y2="29.3295" gradientUnits="userSpaceOnUse">
<stop stop-color="#0057FF"/>
<stop offset="1" stop-color="#AD00FF"/>
</linearGradient>
<linearGradient id="paint1_linear_1617_1857" x1="11.6146" y1="11.0773" x2="36.2193" y2="29.3295" gradientUnits="userSpaceOnUse">
<stop stop-color="#0057FF"/>
<stop offset="1" stop-color="#AD00FF"/>
</linearGradient>
<linearGradient id="paint2_linear_1617_1857" x1="11.6146" y1="11.0773" x2="36.2193" y2="29.3295" gradientUnits="userSpaceOnUse">
<stop stop-color="#0057FF"/>
<stop offset="1" stop-color="#AD00FF"/>
</linearGradient>
<linearGradient id="paint3_linear_1617_1857" x1="11.6146" y1="11.0773" x2="36.2193" y2="29.3295" gradientUnits="userSpaceOnUse">
<stop stop-color="#0057FF"/>
<stop offset="1" stop-color="#AD00FF"/>
</linearGradient>
<linearGradient id="paint4_linear_1617_1857" x1="11.6146" y1="11.0773" x2="36.2193" y2="29.3295" gradientUnits="userSpaceOnUse">
<stop stop-color="#0057FF"/>
<stop offset="1" stop-color="#AD00FF"/>
</linearGradient>
</defs>
</svg>
