<svg width="149" height="131" viewBox="0 0 149 131" fill="none" xmlns="http://www.w3.org/2000/svg">
<path d="M74.9633 0.0218455C72.9285 0.220424 70.9621 0.638485 68.7498 1.33874C64.4209 2.70789 60.8157 4.52645 57.866 6.82579C56.1864 8.13223 55.7357 8.53984 54.575 9.88809C48.7848 16.5457 49.2764 24.9905 55.9269 33.1636C56.8009 34.2401 59.2589 36.9262 60.0373 37.6787C63.9702 41.4203 70.1837 45.9249 76.3289 49.5098C81.9551 52.7811 89.2337 56.4392 92.7843 57.7561C93.8358 58.1428 94.7917 58.4877 94.9146 58.519C95.5428 58.6758 101.005 48.6946 103.545 42.7581C105.02 39.3091 106.468 34.5537 107.014 31.366C107.301 29.6415 107.342 25.001 107.082 23.3183C106.276 18.1971 104.487 14.2673 101.142 10.2643C99.5986 8.42487 96.8264 6.05238 94.3547 4.45329C91.2685 2.45705 87.3082 1.03564 82.8837 0.32494C81.4225 0.0845546 80.767 0.0427485 78.309 0.0113939C76.7385 -0.00950911 75.2227 0.000942412 74.9633 0.0218455ZM80.5622 14.7689C81.4772 14.9571 83.2388 15.6469 84.1537 16.1695C85.7378 17.0892 87.5404 18.5838 88.8787 20.1201C92.4292 24.1858 93.9314 28.7635 94.4913 37.2188C94.6415 39.4764 94.4093 56.4078 94.2318 56.6796C94.0406 56.9722 91.7191 54.6102 84.6863 46.9492C78.9098 40.6469 74.3624 35.0345 71.9999 31.2406C69.8013 27.7079 68.8181 25.3563 68.4084 22.639C67.9851 19.932 69.1458 18.0716 72.2048 16.5353C73.3928 15.9395 75.7553 14.9884 76.5201 14.8003C77.831 14.4763 79.142 14.4659 80.5622 14.7689Z" fill="#3F3F3F"/>
<path d="M138.655 22.4404C137.275 22.5658 135.418 22.8898 134.012 23.2765C129.246 24.5516 122.527 28.3559 117.857 32.4111C112.08 37.4278 108.27 42.7163 103.067 52.8961C102.125 54.7565 100.227 58.7594 100.227 58.8953C100.227 58.9684 101.852 59.1043 105.894 59.3447C108.789 59.5224 120.642 59.5224 123.1 59.3447C131.076 58.7699 137.098 57.6934 142.697 55.8643C150.959 53.1469 156.831 49.0499 160.245 43.6152C162.771 39.6018 163.345 36.5499 162.211 33.2159C161.61 31.4809 160.695 30.1222 159.111 28.6172C155.397 25.0846 150.085 22.9211 143.926 22.4299C142.424 22.3149 140.034 22.3149 138.655 22.4404ZM142.97 34.0311C145.401 34.6582 147.34 35.8183 147.34 36.644C147.34 37.3547 146.302 39.4973 145.332 40.7723C141.768 45.486 134.175 49.3217 121.257 52.9275C117.106 54.0771 103.286 57.4112 103.135 57.2962C103.081 57.2544 105.976 54.6729 106.372 54.4116C106.44 54.3593 107.71 53.2515 113.528 48.1407C114.729 47.0746 117.01 45.2142 118.594 44.0019C124.207 39.6958 128.454 37.3024 134.708 34.9195C137.426 33.8848 138.313 33.7071 140.444 33.7594C141.659 33.7907 142.314 33.8639 142.97 34.0311Z" fill="#3F3F3F"/>
<path d="M16.5158 24.353C14.0441 24.6352 10.9306 25.3772 8.90948 26.182C5.52281 27.5303 2.65506 30.3104 0.483766 34.3656C-0.0488156 35.348 -0.144407 35.881 0.210647 35.9855C0.333551 36.0169 1.04366 35.9019 1.80839 35.7138C7.27077 34.4178 13.0609 34.2192 18.2228 35.1494C20.0937 35.4839 23.6033 36.4245 25.0508 36.9784C26.5666 37.5533 29.093 38.8702 32.2202 40.7096C35.4703 42.6327 51.4341 51.8092 53.7966 53.126C61.5258 57.4216 68.067 59.606 75.5095 60.3794C77.5033 60.5884 82.0917 60.5571 83.9079 60.3271C86.3933 60.0136 88.7148 59.3656 89.0425 58.8848C89.2337 58.6026 88.9879 58.3309 88.3461 58.1323C88.0457 58.0383 86.6254 57.7561 85.1916 57.4948C79.9887 56.5646 77.5715 55.948 73.8708 54.6311C71.3308 53.7218 69.9652 53.0947 67.7939 51.851C64.9671 50.231 63.7244 49.3426 55.9405 43.3539C53.3732 41.3785 50.1641 38.9747 48.8121 38.0236C47.4602 37.062 44.5378 34.9195 42.3256 33.2472C40.1133 31.575 37.8328 29.9028 37.2729 29.5369C34.8421 27.9588 32.0973 26.5583 29.6665 25.6594C26.6895 24.5725 20.3258 23.9349 16.5158 24.353Z" fill="#3F3F3F"/>
<path d="M31.1277 64.0374C29.0656 64.351 27.1538 65.6574 26.3208 67.3297L26.0067 67.9463V95.5383L26.3208 96.155C27.2084 97.9631 28.9154 99.071 31.4418 99.4995L31.8105 99.5622V124.573C31.8105 151.632 31.7695 150.043 32.5206 151.255C33.299 152.531 35.3201 153.659 37.2319 153.9C37.901 153.983 45.2616 154.015 63.8337 153.994L89.5068 153.962V63.9747L60.6245 63.9643C44.4559 63.9538 31.4691 63.9852 31.1277 64.0374Z" fill="#3F3F3F"/>
<path d="M100.568 64.0479C100.527 64.1211 100.514 84.3866 100.527 109.073L100.568 153.962L126.241 153.994C144.813 154.015 152.174 153.983 152.843 153.9C155.342 153.586 157.404 152.112 158.06 150.179C158.237 149.656 158.265 146.406 158.265 124.573V99.5622L158.647 99.4995C161.132 99.0814 162.88 97.9422 163.672 96.2281L164 95.5383V81.7632C164 68.1867 164 67.9881 163.727 67.361C163.058 65.856 161.706 64.8004 159.685 64.2151L158.879 63.9747L129.751 63.9434C106.386 63.9225 100.623 63.9434 100.568 64.0479Z" fill="#3F3F3F"/>
</svg>
