<svg width="155" height="127" viewBox="0 0 155 127" fill="none" xmlns="http://www.w3.org/2000/svg">
<g id="Union" filter="url(#filter0_d_1516_1904)">
<path fill-rule="evenodd" clip-rule="evenodd" d="M48.4359 61.0835C54.8658 55.8452 62.3825 52.6659 70.5029 51.7575C79.7101 50.7281 89.37 53.0595 97.5206 58.3281C100.63 60.3265 104.132 63.3847 105.369 65.1711C106.879 67.3815 107.543 70.2882 107.09 72.6803C106.426 76.2532 104.615 78.7663 101.536 80.4014C100.087 81.1584 99.6338 81.2492 96.9169 81.2492C94.2302 81.2492 93.7472 81.1584 92.3888 80.4317C91.5737 80.0078 89.9436 78.7966 88.7663 77.7974C86.3815 75.7082 82.7892 73.7703 79.861 73.0133C77.2347 72.3169 72.2236 72.3169 69.5973 73.0436C68.5105 73.3464 66.5483 74.1337 65.2201 74.7998C62.8957 75.9807 62.1108 76.7376 45.4171 93.4819C28.8744 110.105 27.999 111.044 26.9424 113.193C22.7464 121.853 24.4671 131.512 31.3498 137.901C33.6742 140.081 35.9383 141.444 38.8665 142.503C40.8588 143.2 41.4928 143.291 45.4473 143.291C49.4019 143.291 50.0358 143.2 52.0282 142.503C56.1035 141.02 57.1902 140.172 66.7597 130.695C74.8499 122.671 76.0574 121.581 77.8686 120.733C82.9703 118.341 88.887 120.46 91.5134 125.608C92.268 127.061 92.3586 127.606 92.3888 129.998C92.3888 134.449 92.0567 134.964 83.5439 143.563C75.3329 151.89 71.65 155.281 68.7218 157.219C64.2843 160.186 58.9109 162.427 53.2961 163.638C49.734 164.425 41.2211 164.425 37.659 163.668C22.4143 160.398 10.8525 150.225 6.05274 135.812C4.57356 131.361 4 127.727 4 122.731C4 113.981 6.35462 106.35 11.4261 98.811C12.9053 96.6006 16.4372 92.9066 29.7197 79.493C38.8061 70.3488 47.1982 62.0827 48.4359 61.0835ZM108.358 4.1893C112.826 2.03949 115.784 1.13113 120.614 0.404434C129.278 -0.897552 139.029 0.979736 146.968 5.52158C150.53 7.55026 153.186 9.66978 156.296 12.9399C162.031 18.9048 165.382 25.4451 167.103 33.8929C167.858 37.5869 167.918 44.8539 167.254 48.7901C166.016 55.8754 162.695 62.9304 157.865 68.6834C154.545 72.6499 124.297 102.687 121.641 104.624C112.071 111.679 99.1207 114.435 87.9514 111.831C78.5027 109.651 67.9371 102.929 65.4316 97.5392C64.7674 96.0858 64.6165 95.3591 64.6165 93.2093C64.6165 90.9687 64.7373 90.3934 65.4919 88.8491C66.6089 86.5782 68.2994 84.8826 70.4729 83.8531C71.8917 83.187 72.586 83.0659 74.8802 83.0659C77.2047 83.0659 77.8386 83.187 79.2574 83.8834C80.163 84.3073 81.5215 85.246 82.2762 85.9424C89.1287 92.3009 97.9132 93.6635 106.124 89.697L108.992 88.3041L126.259 70.9846L143.496 53.6953L144.855 50.8188C146.666 47.034 147.028 45.3081 146.998 41.281C146.968 38.5861 146.787 37.4961 146.153 35.528C143.828 28.3216 137.761 22.7805 130.576 21.2666C125.595 20.2068 119.527 21.2969 115.362 23.9614C114.245 24.6881 110.049 28.5941 104.615 33.9837C95.1964 43.3399 94.5322 43.8547 91.2418 44.4905C86.8948 45.2778 82.246 42.8555 80.2536 38.7375C79.5291 37.2539 79.4083 36.6786 79.4083 34.3168C79.4083 29.8355 79.68 29.4116 88.857 20.1463C99.6641 9.24588 102.381 7.00523 108.358 4.1893Z" fill="url(#paint0_linear_1516_1904)" fill-opacity="0.7" shape-rendering="crispEdges"/>
</g>
<defs>
<filter id="filter0_d_1516_1904" x="0" y="0" width="171.713" height="172.232" filterUnits="userSpaceOnUse" color-interpolation-filters="sRGB">
<feFlood flood-opacity="0" result="BackgroundImageFix"/>
<feColorMatrix in="SourceAlpha" type="matrix" values="0 0 0 0 0 0 0 0 0 0 0 0 0 0 0 0 0 0 127 0" result="hardAlpha"/>
<feOffset dy="4"/>
<feGaussianBlur stdDeviation="2"/>
<feComposite in2="hardAlpha" operator="out"/>
<feColorMatrix type="matrix" values="0 0 0 0 0 0 0 0 0 0 0 0 0 0 0 0 0 0 0.25 0"/>
<feBlend mode="normal" in2="BackgroundImageFix" result="effect1_dropShadow_1516_1904"/>
<feBlend mode="normal" in="SourceGraphic" in2="effect1_dropShadow_1516_1904" result="shape"/>
</filter>
<linearGradient id="paint0_linear_1516_1904" x1="-21.1026" y1="169.799" x2="241.296" y2="13.7296" gradientUnits="userSpaceOnUse">
<stop stop-color="#0066FF" stop-opacity="0.9"/>
<stop offset="1" stop-color="#FF00E6" stop-opacity="0.76"/>
</linearGradient>
</defs>
</svg>
