<svg width="151" height="97" viewBox="0 0 151 97" fill="none" xmlns="http://www.w3.org/2000/svg">
<path fill-rule="evenodd" clip-rule="evenodd" d="M75.5 124C117.198 124 151 90.1974 151 48.5C151 6.80261 117.198 -27 75.5 -27C33.8025 -27 0 6.80261 0 48.5C0 90.1974 33.8025 124 75.5 124ZM75.1801 111.843C110.34 111.843 138.843 83.3401 138.843 48.1801C138.843 13.02 110.34 -15.4831 75.1801 -15.4831C40.0199 -15.4831 11.517 13.02 11.517 48.1801C11.517 83.3401 40.0199 111.843 75.1801 111.843Z" fill="white" fill-opacity="0.03"/>
<path d="M48.8576 67.7668C63.8148 68.7301 74.4524 69.2118 80.7705 69.2118C82.2533 69.2118 83.4137 68.7944 84.2518 67.9595C85.1544 67.0603 85.6057 65.8722 85.6057 64.3951V54.7617H67.3284C60.559 54.7617 55.627 53.2525 52.5324 50.234C49.5023 47.1513 47.9873 42.2383 47.9873 35.4949V33.5682C47.9873 26.8248 49.5023 21.9439 52.5324 18.9254C55.627 15.8428 60.559 14.3014 67.3284 14.3014H69.2625L68.2954 5.63136H82.8012L81.8342 14.3014H97.3071V27.7882H71.1966C67.3284 27.7882 65.3943 29.7149 65.3943 33.5682V35.4949C65.3943 39.3483 67.3284 41.2749 71.1966 41.2749H84.6387C90.9568 41.2749 95.5986 42.7521 98.5643 45.7063C101.53 48.6606 103.013 53.2846 103.013 59.5784V64.3951C103.013 70.6889 101.53 75.313 98.5643 78.2672C95.6631 81.2215 91.0535 82.6986 84.7354 82.6986H82.0276L82.8012 91.3687H68.2954L69.2625 82.2169C61.7839 81.8316 54.9823 81.3499 48.8576 80.7719V67.7668Z" fill="white" fill-opacity="0.03"/>
</svg>
