<svg width="145" height="128" viewBox="0 0 145 128" fill="none" xmlns="http://www.w3.org/2000/svg">
<path fill-rule="evenodd" clip-rule="evenodd" d="M79.5 159C123.407 159 159 123.407 159 79.5C159 35.5935 123.407 0 79.5 0C35.5934 0 0 35.5935 0 79.5C0 123.407 35.5934 159 79.5 159ZM79.1631 146.199C116.186 146.199 146.199 116.186 146.199 79.1631C146.199 42.1403 116.186 12.1271 79.1631 12.1271C42.1401 12.1271 12.1271 42.1403 12.1271 79.1631C12.1271 116.186 42.1401 146.199 79.1631 146.199Z" fill="#3F3F3F"/>
<path d="M51.4461 99.7876C67.1957 100.802 78.3969 101.309 85.0497 101.309C86.6111 101.309 87.833 100.87 88.7155 99.9904C89.6659 99.0437 90.1412 97.7926 90.1412 96.2372V86.0935H70.8955C63.7674 86.0935 58.5742 84.5043 55.3156 81.3259C52.125 78.0799 50.5297 72.9065 50.5297 65.8059L50.5297 63.7771C50.5297 56.6765 52.125 51.537 55.3156 48.3586C58.5742 45.1126 63.7674 43.4896 70.8955 43.4896H72.932L71.9137 34.3602H87.1881L86.1698 43.4896H102.462V57.6909H74.9686C70.8955 57.6909 68.8589 59.7196 68.8589 63.7771V65.8059C68.8589 69.8634 70.8955 71.8922 74.9686 71.8922H89.1229C95.7757 71.8922 100.663 73.4475 103.786 76.5583C106.909 79.6691 108.47 84.5381 108.47 91.1653V96.2372C108.47 102.865 106.909 107.734 103.786 110.844C100.731 113.955 95.8775 115.51 89.2247 115.51H86.3735L87.1881 124.64H71.9137L72.932 115.003C65.0573 114.597 57.8953 114.09 51.4461 113.482V99.7876Z" fill="#3F3F3F"/>
</svg>
