<svg width="80" height="79" viewBox="0 0 80 79" fill="none" xmlns="http://www.w3.org/2000/svg">
<path id="Vector" d="M40 6.58333C58.38 6.58333 73.3333 21.3498 73.3333 39.5C73.3333 57.6502 58.38 72.4167 40 72.4167C21.62 72.4167 6.66667 57.6502 6.66667 39.5C6.66667 21.3498 21.62 6.58333 40 6.58333ZM40 0C17.91 0 0 17.6861 0 39.5C0 61.3139 17.91 79 40 79C62.09 79 80 61.3139 80 39.5C80 17.6861 62.09 0 40 0ZM40 23.3116C45.34 23.3116 45.9733 23.3313 48.0833 23.4268C53.5067 23.6704 56.0333 26.2083 56.2833 31.521C56.3767 33.6046 56.3967 34.2267 56.3967 39.5C56.3967 44.7733 56.3767 45.3987 56.2833 47.479C56.0333 52.7885 53.51 55.3329 48.0833 55.5765C45.9733 55.6687 45.3433 55.6917 40 55.6917C34.66 55.6917 34.0267 55.672 31.92 55.5765C26.4867 55.3296 23.97 52.7819 23.72 47.479C23.6267 45.3987 23.6033 44.7733 23.6033 39.5C23.6033 34.2267 23.6267 33.6013 23.72 31.521C23.9667 26.205 26.4933 23.6671 31.92 23.4235C34.0267 23.328 34.66 23.3116 40 23.3116ZM40 19.75C34.5667 19.75 33.89 19.773 31.7533 19.8718C24.4867 20.201 20.4533 24.1806 20.12 31.3564C20.0233 33.4664 20 34.1379 20 39.5C20 44.8654 20.0233 45.5369 20.12 47.6436C20.4533 54.8161 24.4867 58.8023 31.7533 59.1315C33.89 59.227 34.5667 59.25 40 59.25C45.4333 59.25 46.1133 59.227 48.25 59.1315C55.5033 58.8023 59.5533 54.8227 59.88 47.6436C59.9767 45.5369 60 44.8654 60 39.5C60 34.1379 59.9767 33.4664 59.88 31.3564C59.5533 24.1905 55.5167 20.1977 48.25 19.8718C46.1133 19.773 45.4333 19.75 40 19.75ZM40 29.3584C34.33 29.3584 29.73 33.8976 29.73 39.5C29.73 45.1024 34.33 49.6416 40 49.6416C45.67 49.6416 50.27 45.1024 50.27 39.5C50.27 33.9009 45.67 29.3584 40 29.3584ZM40 46.0833C36.3167 46.0833 33.3333 43.1373 33.3333 39.5C33.3333 35.866 36.3167 32.9167 40 32.9167C43.68 32.9167 46.67 35.8627 46.67 39.5C46.67 43.1373 43.68 46.0833 40 46.0833ZM50.6733 26.5901C49.35 26.5901 48.2733 27.65 48.2733 28.9601C48.2733 30.2669 49.3467 31.3301 50.6733 31.3301C52 31.3301 53.0767 30.2702 53.0767 28.9601C53.0767 27.65 52.0033 26.5901 50.6733 26.5901Z" fill="url(#paint0_linear_977_2320)"/>
<defs>
<linearGradient id="paint0_linear_977_2320" x1="-31.8987" y1="3" x2="106.9" y2="88.0466" gradientUnits="userSpaceOnUse">
<stop stop-color="#0066FF"/>
<stop offset="1" stop-color="#BD00FF"/>
</linearGradient>
</defs>
</svg>
