<svg width="141" height="126" viewBox="0 0 141 126" fill="none" xmlns="http://www.w3.org/2000/svg">
<g filter="url(#filter0_d_1516_1947)">
<path fill-rule="evenodd" clip-rule="evenodd" d="M85.5 163C130.511 163 167 126.511 167 81.5C167 36.4888 130.511 0 85.5 0C40.4888 0 4 36.4888 4 81.5C4 126.511 40.4888 163 85.5 163ZM139.604 71.4225C144.31 66.3102 143.98 58.3514 138.868 53.6462C133.755 48.9409 125.796 49.2708 121.091 54.3831L83.1343 95.6233C81.2092 97.715 77.9175 97.746 75.9533 95.6908L57.7428 76.6366C52.9423 71.6136 44.9788 71.4333 39.9558 76.2338C34.9329 81.0344 34.7525 88.9979 39.5531 94.0208L57.7635 113.075C69.7667 125.634 89.8826 125.445 101.648 112.663L139.604 71.4225Z" fill="url(#paint0_linear_1516_1947)" fill-opacity="0.7" shape-rendering="crispEdges"/>
</g>
<defs>
<filter id="filter0_d_1516_1947" x="0" y="0" width="171" height="171" filterUnits="userSpaceOnUse" color-interpolation-filters="sRGB">
<feFlood flood-opacity="0" result="BackgroundImageFix"/>
<feColorMatrix in="SourceAlpha" type="matrix" values="0 0 0 0 0 0 0 0 0 0 0 0 0 0 0 0 0 0 127 0" result="hardAlpha"/>
<feOffset dy="4"/>
<feGaussianBlur stdDeviation="2"/>
<feComposite in2="hardAlpha" operator="out"/>
<feColorMatrix type="matrix" values="0 0 0 0 0 0 0 0 0 0 0 0 0 0 0 0 0 0 0.25 0"/>
<feBlend mode="normal" in2="BackgroundImageFix" result="effect1_dropShadow_1516_1947"/>
<feBlend mode="normal" in="SourceGraphic" in2="effect1_dropShadow_1516_1947" result="shape"/>
</filter>
<linearGradient id="paint0_linear_1516_1947" x1="-20.9932" y1="-5.52503" x2="239.829" y2="150.099" gradientUnits="userSpaceOnUse">
<stop stop-color="#0066FF" stop-opacity="0.9"/>
<stop offset="1" stop-color="#FF00E6" stop-opacity="0.76"/>
</linearGradient>
</defs>
</svg>
