<svg width="47" height="44" viewBox="0 0 47 44" fill="none" xmlns="http://www.w3.org/2000/svg">
<g id="litecoin-ltc-logo 1" clip-path="url(#clip0_1594_2035)">
<path id="Vector" d="M23.1368 41.5311C34.4135 41.5311 43.5551 32.8654 43.5551 22.1757C43.5551 11.486 34.4135 2.82031 23.1368 2.82031C11.8601 2.82031 2.71851 11.486 2.71851 22.1757C2.71851 32.8654 11.8601 41.5311 23.1368 41.5311Z" fill="white"/>
<path id="Vector_2" d="M23.1369 0.470703C18.6084 0.470703 14.1817 1.74365 10.4164 4.12857C6.65105 6.51349 3.71636 9.90327 1.98338 13.8693C0.250399 17.8352 -0.203027 22.1993 0.680438 26.4095C1.5639 30.6198 3.74458 34.4872 6.9467 37.5226C10.1488 40.558 14.2286 42.6252 18.6701 43.4627C23.1115 44.3001 27.7153 43.8703 31.899 42.2276C36.0828 40.5848 39.6587 37.8029 42.1746 34.2336C44.6905 30.6643 46.0334 26.468 46.0334 22.1752C46.0421 19.3332 45.4603 16.5174 44.321 13.8886C43.1818 11.2597 41.5075 8.86935 39.3937 6.8539C37.2799 4.83845 34.7681 3.2374 32.0016 2.14217C29.2351 1.04694 26.2681 0.478973 23.27 0.470703H23.1369ZM23.525 22.911L21.1411 30.5312H33.8922C33.9766 30.5284 34.0609 30.5414 34.14 30.5694C34.2192 30.5975 34.2917 30.6401 34.3535 30.6948C34.4153 30.7494 34.4651 30.8151 34.5001 30.888C34.5351 30.961 34.5546 31.0397 34.5574 31.1198V31.3195L33.4487 34.9457C33.3998 35.1171 33.2908 35.2678 33.1397 35.3728C32.9886 35.4779 32.8043 35.5311 32.6171 35.5237H13.1024L16.3733 24.9605L12.7143 26.0116L13.5459 23.5941L17.2049 22.5431L21.8064 7.72306C21.857 7.55253 21.9664 7.40298 22.1171 7.29822C22.2678 7.19346 22.4512 7.13951 22.638 7.14497H27.5721C27.6566 7.14216 27.7408 7.15516 27.8199 7.18323C27.8991 7.2113 27.9716 7.25388 28.0334 7.30855C28.0952 7.36321 28.145 7.42889 28.18 7.50182C28.215 7.57474 28.2345 7.65349 28.2374 7.73357V7.93327L24.3566 20.4409L28.0156 19.3899L27.2395 21.9124L23.525 22.911Z" fill="#345D9D"/>
</g>
<defs>
<clipPath id="clip0_1594_2035">
<rect width="45.7929" height="43.409" fill="white" transform="translate(0.240479 0.470703)"/>
</clipPath>
</defs>
</svg>
