<svg width="43" height="43" viewBox="0 0 43 43" fill="none" xmlns="http://www.w3.org/2000/svg">
<path id="Vector" d="M21.5 3.58333C31.3792 3.58333 39.4167 11.6207 39.4167 21.5C39.4167 31.3792 31.3792 39.4167 21.5 39.4167C11.6207 39.4167 3.58333 31.3792 3.58333 21.5C3.58333 11.6207 11.6207 3.58333 21.5 3.58333ZM21.5 0C9.62663 0 0 9.62663 0 21.5C0 33.3734 9.62663 43 21.5 43C33.3734 43 43 33.3734 43 21.5C43 9.62663 33.3734 0 21.5 0ZM21.5376 31.9347C14.5376 31.9347 10.75 27.5666 10.75 21.9264C10.75 15.901 15.016 11.0653 22.6431 11.0653C28.2098 11.0653 32.25 14.6827 32.25 19.6671C32.25 27.4716 22.996 29.532 23.4601 25.0798C22.8258 26.0741 21.7992 27.1885 19.8302 27.1885C17.578 27.1885 16.1752 25.5402 16.1752 22.8832C16.1752 18.9021 18.7928 15.5373 21.8906 15.5373C23.3759 15.5373 24.3971 16.3221 24.8253 17.5261L25.241 16.0641H27.3355C27.1169 16.8094 25.2553 23.7037 25.2553 23.7037C24.6766 26.092 26.4647 26.1332 28.0539 24.8647C31.037 22.5535 31.1893 16.5084 27.1599 13.9875C22.8402 11.3986 13.0111 13.0003 13.0111 21.7759C13.0111 26.8033 16.5514 30.1806 21.8153 30.1806C24.8952 30.1806 26.78 29.3475 28.3513 28.4355L29.4048 29.9567C27.8712 30.8202 25.4076 31.9347 21.5376 31.9347ZM19.4378 19.1189C18.7982 20.3193 18.3843 21.8745 18.3843 23.082C18.3843 26.316 21.5394 26.3357 23.0892 23.297C23.727 22.0483 24.1391 20.4555 24.1391 19.2389C24.1391 16.6267 21.0073 16.1626 19.4378 19.1189Z" fill="url(#paint0_linear_977_2337)"/>
<defs>
<linearGradient id="paint0_linear_977_2337" x1="-17.1456" y1="1.63291" x2="57.9684" y2="47.0823" gradientUnits="userSpaceOnUse">
<stop stop-color="#0066FF"/>
<stop offset="1" stop-color="#BD00FF"/>
</linearGradient>
</defs>
</svg>
