<svg width="20" height="23" viewBox="0 0 20 23" fill="none" xmlns="http://www.w3.org/2000/svg">
<g id="Group">
<path id="Vector" d="M9.68974 0.0689144C9.24935 0.21571 8.7111 0.842039 8.63281 1.302C8.57409 1.6641 8.5643 1.67388 7.75203 1.95769C5.78497 2.62316 4.13107 4.23792 3.37751 6.21477C2.99584 7.24234 2.91755 7.99589 2.91755 10.7752C2.91755 13.9265 2.93713 13.8579 1.9487 14.8757C1.05814 15.7957 0.872197 16.1969 0.735187 17.4789C0.656896 18.301 0.656896 18.5848 0.75476 18.8294L0.881983 19.1328H10.0225H19.1532L19.2706 18.9175C19.3489 18.7707 19.3685 18.3793 19.3293 17.6942C19.251 16.373 19.026 15.8642 18.0473 14.8366C17.558 14.3179 17.284 13.9558 17.2155 13.6916C17.147 13.4567 17.1078 12.2334 17.1078 10.5697C17.1078 7.74145 17.0491 7.2032 16.6479 6.11691C15.9432 4.23792 14.2893 2.62316 12.3614 1.95769C11.7938 1.76196 11.7742 1.74239 11.7057 1.32157C11.6079 0.783321 11.373 0.440798 10.9326 0.225496C10.4727 -0.00937653 10.0714 -0.0583096 9.68974 0.0689144Z" fill="currentColor" fill-opacity="0.5"/>
<path id="Vector_2" d="M7.76175 20.1111C7.67367 20.2481 7.80089 20.7668 8.01619 21.1974C8.52508 22.2054 9.86582 22.6458 10.9619 22.1761C11.4904 21.951 12.0775 21.2855 12.2243 20.7668C12.4201 20.0328 12.5179 20.0622 10.042 20.0328C8.5838 20.0231 7.80089 20.0426 7.76175 20.1111Z" fill="currentColor" fill-opacity="0.5"/>
</g>
</svg>
