<svg width="30" height="30" viewBox="0 0 30 30" fill="none" xmlns="http://www.w3.org/2000/svg">
<g id="Intersect">
<path d="M3.16762 8.94495C2.2598 9.07683 1.5345 8.23329 1.81126 7.36734L3.88278 0.878585C4.18042 -0.0534536 5.3978 -0.308625 6.03125 0.428359L7.53255 2.17453C11.6344 -0.202801 16.7802 -0.646622 21.3831 1.42881C28.0766 4.44706 31.359 11.7724 29.4723 18.6113C29.2797 19.3102 28.4786 19.6323 27.8171 19.3341C27.2362 19.072 26.9553 18.4116 27.1139 17.7947C28.5675 12.1536 25.8315 6.16266 20.3196 3.67718C16.6298 2.01339 12.5214 2.29244 9.17104 4.07966L10.7612 5.92903C11.3947 6.66602 10.9461 7.81495 9.96911 7.95687L3.16762 8.94495Z" fill="white" fill-opacity="0.5"/>
<path d="M22.6148 27.5761L23.9759 29.4853C24.5396 30.2762 25.7737 30.1291 26.1536 29.2259L28.8013 22.9378C29.1544 22.0986 28.5096 21.1935 27.5947 21.2449L20.7395 21.6302C19.7547 21.6855 19.2042 22.7918 19.7678 23.5826L21.1797 25.5633C17.7685 27.5227 13.5002 27.8825 9.68042 26.1602C4.16789 23.6746 1.4325 17.6837 2.88609 12.0427C3.04475 11.4258 2.76381 10.7652 2.18285 10.5032C1.52137 10.2051 0.72032 10.5272 0.527662 11.2259C-1.35896 18.0649 1.92339 25.3903 8.61693 28.4084C13.2753 30.5089 18.489 30.029 22.6148 27.5761Z" fill="white" fill-opacity="0.5"/>
</g>
</svg>
