<svg width="81" height="46" viewBox="0 0 81 46" fill="none" xmlns="http://www.w3.org/2000/svg">
<path d="M8.65815 25.0459C6.17678 25.4151 4.19429 23.0532 4.95076 20.6286L10.6129 2.46004C11.4265 -0.14967 14.754 -0.864151 16.4854 1.19941L20.589 6.08869C31.8008 -0.567843 45.8657 -1.81054 58.4471 4.00068C76.7427 12.4518 85.7145 32.9626 80.5577 52.1118C80.0311 54.0685 77.8416 54.9705 76.0335 54.1354C74.4456 53.4017 73.6777 51.5526 74.1114 49.8253C78.0845 34.0301 70.6061 17.2555 55.5402 10.2961C45.4549 5.6375 34.2251 6.41882 25.0675 11.423L29.414 16.6013C31.1454 18.6649 29.9194 21.8818 27.2489 22.2792L8.65815 25.0459Z" fill="white" />
<path d="M61.8137 77.2131L65.5341 82.5589C67.0748 84.7733 70.448 84.3616 71.4865 81.8326L78.7236 64.2257C79.6888 61.8761 77.9264 59.3417 75.4254 59.4856L56.6879 60.5645C53.9962 60.7194 52.4914 63.8169 54.0321 66.0313L57.8911 71.5772C48.5672 77.0636 36.9005 78.0711 26.4598 73.2486C11.3922 66.2889 3.9155 49.5143 7.88863 33.7195C8.3223 31.9922 7.55442 30.1426 5.96647 29.409C4.15842 28.5742 1.96887 29.4762 1.44228 31.4326C-3.71449 50.5817 5.25727 71.093 23.5529 79.5437C36.2859 85.425 50.5367 84.0812 61.8137 77.2131Z" fill="white" />
</svg>
