<svg width="146" height="125" viewBox="0 0 146 125" fill="none" xmlns="http://www.w3.org/2000/svg">
<g filter="url(#filter0_d_1516_1987)">
<path d="M44.8342 79.4078C44.8546 95.4298 41.17 111.24 34.0683 125.602C33.5491 126.613 32.7614 127.461 31.7916 128.054C30.8218 128.647 29.7074 128.961 28.5708 128.961C27.6233 128.941 26.689 128.734 25.8221 128.35C24.3909 127.614 23.3032 126.349 22.79 124.823C22.2767 123.298 22.3784 121.632 23.0734 120.181C29.3859 107.518 32.6541 93.5565 32.6176 79.4078C32.6016 71.1647 34.4472 63.0244 38.0169 55.5943C41.5865 48.1641 46.7879 41.636 53.2331 36.497C54.4987 35.4845 56.1147 35.0163 57.7256 35.1952C59.3365 35.3742 60.8103 36.1858 61.8228 37.4515C62.8354 38.7171 63.3036 40.3331 63.1246 41.944C62.9457 43.5549 62.1341 45.0287 60.8684 46.0412C55.8623 50.0423 51.8214 55.1194 49.0456 60.8957C46.2698 66.672 44.8304 72.9992 44.8342 79.4078ZM87.5922 73.2995C85.9722 73.2995 84.4185 73.943 83.273 75.0886C82.1275 76.2341 81.4839 77.7878 81.4839 79.4078C81.5102 103.209 75.4659 126.624 63.9226 147.439C63.1567 148.869 62.9836 150.543 63.4407 152.1C63.8978 153.657 64.9483 154.972 66.3659 155.761C67.248 156.269 68.2495 156.533 69.2673 156.525C70.3564 156.527 71.4262 156.238 72.3659 155.687C73.3057 155.137 74.0812 154.345 74.6121 153.394C87.1481 130.751 93.7169 105.29 93.7005 79.4078C93.7005 77.7878 93.057 76.2341 91.9114 75.0886C90.7659 73.943 89.2122 73.2995 87.5922 73.2995ZM87.5922 48.8663C79.4983 48.8865 71.7417 52.1107 66.0184 57.834C60.2951 63.5573 57.0709 71.3139 57.0507 79.4078C57.0507 81.0278 57.6943 82.5815 58.8398 83.727C59.9854 84.8725 61.539 85.5161 63.159 85.5161C64.7791 85.5161 66.3327 84.8725 67.4783 83.727C68.6238 82.5815 69.2673 81.0278 69.2673 79.4078C69.2673 74.5477 71.198 69.8867 74.6346 66.4501C78.0711 63.0136 82.7321 61.0829 87.5922 61.0829C92.4523 61.0829 97.1133 63.0136 100.55 66.4501C103.986 69.8867 105.917 74.5477 105.917 79.4078C105.977 103.694 100.631 127.69 90.2646 149.653C89.9172 150.374 89.7167 151.157 89.6747 151.956C89.6328 152.755 89.7502 153.554 90.0203 154.308C90.2903 155.061 90.7075 155.753 91.2476 156.343C91.7876 156.934 92.4398 157.411 93.166 157.747C93.967 158.163 94.8593 158.373 95.762 158.357C96.9277 158.357 98.0694 158.027 99.0555 157.405C100.042 156.784 100.832 155.896 101.336 154.845C112.467 131.259 118.206 105.489 118.134 79.4078C118.134 71.3077 114.916 63.5393 109.188 57.8117C103.461 52.0841 95.6923 48.8663 87.5922 48.8663ZM87.5922 0C66.5443 0.0403603 46.3701 8.41948 31.487 23.3026C16.6039 38.1857 8.22478 58.3599 8.18442 79.4078C8.18957 87.0275 6.8986 94.5926 4.36673 101.779C4.09023 102.536 3.96797 103.34 4.00714 104.144C4.04632 104.948 4.24615 105.737 4.59484 106.463C4.94353 107.188 5.43403 107.837 6.03742 108.37C6.6408 108.904 7.34486 109.311 8.10806 109.567C9.62712 110.108 11.2983 110.026 12.7573 109.34C14.2162 108.653 15.3445 107.418 15.8961 105.902C18.885 97.3892 20.4082 88.4305 20.401 79.4078C20.401 61.5876 27.4801 44.4972 40.0808 31.8964C52.6816 19.2956 69.772 12.2166 87.5922 12.2166C105.412 12.2166 122.503 19.2956 135.104 31.8964C147.704 44.4972 154.783 61.5876 154.783 79.4078C154.776 93.3766 153.421 107.312 150.737 121.021C150.445 122.599 150.786 124.228 151.686 125.557C152.586 126.886 153.973 127.807 155.547 128.121C155.941 128.247 156.355 128.299 156.769 128.274C158.186 128.279 159.56 127.784 160.649 126.876C161.738 125.969 162.473 124.706 162.724 123.311C165.568 108.85 167 94.1461 167 79.4078C166.98 58.3537 158.607 38.1678 143.72 23.2803C128.832 8.39286 108.646 0.0202151 87.5922 0ZM61.9374 97.8854C60.3586 97.5692 58.7189 97.8892 57.3748 98.7757C56.0308 99.6622 55.0911 101.044 54.7601 102.619C52.2529 114.799 47.8196 126.5 41.6273 137.284C40.8186 138.694 40.5975 140.366 41.0119 141.937C41.4263 143.509 42.4428 144.855 43.8416 145.683C44.778 146.193 45.8292 146.456 46.8957 146.446C47.9659 146.45 49.0178 146.17 49.9436 145.633C50.8694 145.096 51.6358 144.323 52.1641 143.392C59.0936 131.501 64.0206 118.552 66.7477 105.063C67.0412 103.475 66.7024 101.836 65.8036 100.495C64.9049 99.1537 63.5173 98.2172 61.9374 97.8854ZM87.5922 24.4332C85.294 24.4336 82.9983 24.5867 80.7204 24.8913C79.8691 24.9166 79.0326 25.1197 78.2645 25.4874C77.4964 25.8551 76.8136 26.3794 76.2601 27.0266C75.7066 27.6737 75.2945 28.4295 75.0503 29.2454C74.8061 30.0612 74.7352 30.9191 74.8421 31.764C74.9491 32.6088 75.2315 33.422 75.6713 34.1512C76.1111 34.8805 76.6985 35.5098 77.3958 35.9986C78.0931 36.4874 78.885 36.8251 79.7205 36.9898C80.556 37.1545 81.4168 37.1427 82.2475 36.9552C84.0207 36.7394 85.8059 36.6374 87.5922 36.6497C98.9323 36.6497 109.808 41.1546 117.827 49.1733C125.845 57.192 130.35 68.0676 130.35 79.4078C130.366 87.3204 129.882 95.226 128.9 103.077C128.793 103.871 128.845 104.677 129.053 105.45C129.26 106.223 129.62 106.946 130.11 107.579C130.601 108.211 131.212 108.74 131.909 109.134C132.605 109.527 133.373 109.779 134.168 109.873H134.931C136.423 109.868 137.863 109.325 138.985 108.343C140.107 107.361 140.837 106.006 141.04 104.528C142.045 96.1667 142.555 87.7531 142.567 79.3314C142.526 64.7707 136.719 50.819 126.416 40.5301C116.113 30.2413 102.153 24.4533 87.5922 24.4332ZM131.801 122.395C131.029 122.188 130.223 122.138 129.431 122.245C128.639 122.353 127.877 122.617 127.187 123.022C126.498 123.427 125.897 123.965 125.417 124.604C124.938 125.244 124.59 125.972 124.395 126.747C123.249 131.099 121.951 135.451 120.577 139.727C120.067 141.256 120.182 142.925 120.897 144.369C121.613 145.814 122.87 146.917 124.395 147.439C125.157 147.69 125.961 147.788 126.761 147.728C127.561 147.668 128.341 147.451 129.057 147.089C129.773 146.728 130.411 146.228 130.934 145.62C131.457 145.012 131.856 144.307 132.106 143.545C133.633 139.015 135.008 134.433 136.229 129.801C136.623 128.232 136.377 126.571 135.547 125.182C134.717 123.794 133.369 122.791 131.801 122.395Z" fill="url(#paint0_linear_1516_1987)" fill-opacity="0.7" shape-rendering="crispEdges"/>
</g>
<defs>
<filter id="filter0_d_1516_1987" x="0" y="0" width="171" height="166.358" filterUnits="userSpaceOnUse" color-interpolation-filters="sRGB">
<feFlood flood-opacity="0" result="BackgroundImageFix"/>
<feColorMatrix in="SourceAlpha" type="matrix" values="0 0 0 0 0 0 0 0 0 0 0 0 0 0 0 0 0 0 127 0" result="hardAlpha"/>
<feOffset dy="4"/>
<feGaussianBlur stdDeviation="2"/>
<feComposite in2="hardAlpha" operator="out"/>
<feColorMatrix type="matrix" values="0 0 0 0 0 0 0 0 0 0 0 0 0 0 0 0 0 0 0.25 0"/>
<feBlend mode="normal" in2="BackgroundImageFix" result="effect1_dropShadow_1516_1987"/>
<feBlend mode="normal" in="SourceGraphic" in2="effect1_dropShadow_1516_1987" result="shape"/>
</filter>
<linearGradient id="paint0_linear_1516_1987" x1="-20.9932" y1="-5.36769" x2="235.818" y2="152.355" gradientUnits="userSpaceOnUse">
<stop stop-color="#0066FF" stop-opacity="0.9"/>
<stop offset="1" stop-color="#FF00E6" stop-opacity="0.76"/>
</linearGradient>
</defs>
</svg>
