<svg width="79" height="79" viewBox="0 0 79 79" fill="none" xmlns="http://www.w3.org/2000/svg">
<g id="iconmonstr-telegram-5 (1)" clip-path="url(#clip0_1823_2548)">
<path id="telegram-5" fill-rule="evenodd" clip-rule="evenodd" d="M39.5 0C17.6861 0 0 17.6861 0 39.5C0 61.3139 17.6861 79 39.5 79C61.3139 79 79 61.3139 79 39.5C79 17.6861 61.3139 0 39.5 0ZM39.5 6.58333C57.6503 6.58333 72.4167 21.3498 72.4167 39.5C72.4167 57.6503 57.6503 72.4167 39.5 72.4167C21.3498 72.4167 6.58333 57.6503 6.58333 39.5C6.58333 21.3498 21.3498 6.58333 39.5 6.58333ZM48.3612 55.593C48.8911 55.9715 49.5725 56.0637 50.1815 55.8333C50.7904 55.6028 51.2414 55.0828 51.373 54.4508C52.8049 47.7292 56.2743 30.7145 57.5745 24.6019C57.6733 24.1411 57.512 23.6638 57.1499 23.3544C56.7878 23.0482 56.2842 22.9594 55.8365 23.124C48.9372 25.6783 27.6829 33.6507 18.9962 36.8667C18.4432 37.0708 18.0844 37.6007 18.1042 38.1833C18.1239 38.766 18.5156 39.2696 19.0785 39.4375C22.9758 40.6027 28.0911 42.2255 28.0911 42.2255C28.0911 42.2255 30.4775 49.4441 31.7251 53.1143C31.8798 53.5719 32.2419 53.9373 32.7159 54.059C33.1932 54.1841 33.6968 54.0558 34.0523 53.72C36.0536 51.8306 39.1478 48.9109 39.1478 48.9109C39.1478 48.9109 45.0267 53.2197 48.3612 55.593ZM30.2405 41.3137L33.0055 50.4283L33.6178 44.6548C33.6178 44.6548 44.2927 35.0266 50.379 29.5361C50.56 29.3781 50.583 29.1082 50.4349 28.9173C50.2868 28.7297 50.0202 28.6836 49.8161 28.812C42.762 33.315 30.2405 41.3137 30.2405 41.3137Z" fill="url(#paint0_linear_1823_2548)"/>
</g>
<defs>
<linearGradient id="paint0_linear_1823_2548" x1="-4.50001" y1="-16.5001" x2="64.4417" y2="-30.5666" gradientUnits="userSpaceOnUse">
<stop stop-color="#0057FF"/>
<stop offset="1" stop-color="#CC00FF"/>
</linearGradient>
<clipPath id="clip0_1823_2548">
<rect width="79" height="79" fill="white"/>
</clipPath>
</defs>
</svg>
