<svg width="46" height="39" viewBox="0 0 46 39" fill="none" xmlns="http://www.w3.org/2000/svg">
<g clip-path="url(#clip0_1400_2364)">
<path fill-rule="evenodd" clip-rule="evenodd" d="M8.42287 -0.697751L0.0354591 16.242C0.00354258 16.305 -0.00657156 16.3761 0.00659577 16.4451C0.0197631 16.514 0.0555211 16.5771 0.108641 16.6251L22.761 37.4961C22.8254 37.5554 22.9111 37.5885 23.0002 37.5885C23.0894 37.5885 23.1751 37.5554 23.2394 37.4961L45.8918 16.6264C45.9449 16.5784 45.9807 16.5153 45.9938 16.4464C46.007 16.3774 45.9969 16.3063 45.965 16.2433L37.5776 -0.696448C37.5505 -0.753338 37.507 -0.801532 37.4522 -0.835269C37.3974 -0.869005 37.3336 -0.886858 37.2686 -0.886694H8.73457C8.6692 -0.887476 8.60498 -0.870053 8.54967 -0.836527C8.49436 -0.803001 8.45033 -0.754804 8.42287 -0.697751Z" fill="#50AF95"/>
<path fill-rule="evenodd" clip-rule="evenodd" d="M25.9105 17.9815C25.7479 17.9932 24.9077 18.0415 23.0334 18.0415C21.5427 18.0415 20.4843 17.9985 20.1129 17.9815C14.3519 17.7378 10.0518 16.7736 10.0518 15.6191C10.0518 14.4646 14.3519 13.5016 20.1129 13.254V17.0212C20.4897 17.0472 21.5684 17.1085 23.0592 17.1085C24.848 17.1085 25.7438 17.0368 25.9051 17.0225V13.2566C31.6539 13.5029 35.9445 14.4672 35.9445 15.6191C35.9445 16.771 31.6553 17.7352 25.9051 17.9802L25.9105 17.9815ZM25.9105 12.867V9.49602H33.9334V4.35547H12.0901V9.49602H20.1116V12.8657C13.5916 13.1537 8.68848 14.3955 8.68848 15.8836C8.68848 17.3717 13.5916 18.6122 20.1116 18.9015V29.7038H25.9092V18.8976C32.4142 18.6096 37.3092 17.3691 37.3092 15.8823C37.3092 14.3955 32.4183 13.155 25.9092 12.8657L25.9105 12.867Z" fill="white"/>
</g>
<defs>
<clipPath id="clip0_1400_2364">
<rect width="46" height="38.4753" fill="white"/>
</clipPath>
</defs>
</svg>
