<svg width="36" height="30" viewBox="0 0 36 30" fill="none" xmlns="http://www.w3.org/2000/svg">
<g id="Vector">
<path d="M3.67347 2.96296C1.64463 2.96296 0 4.62131 0 6.66667L0 26.2963C0 28.3417 1.64463 30 3.67347 30L32.3265 30C34.3554 30 36 28.3417 36 26.2963V24.8148L24.9796 24.8148C21.3277 24.8148 18.3673 21.8302 18.3673 18.1481C18.3673 14.4661 21.3277 11.4815 24.9796 11.4815H36V6.66667C36 4.62131 34.3554 2.96296 32.3265 2.96296L3.67347 2.96296Z" fill="white" fill-opacity="0.1"/>
<path fill-rule="evenodd" clip-rule="evenodd" d="M24.9796 13.7037H36V22.5926L24.9796 22.5926C22.545 22.5926 20.5714 20.6026 20.5714 18.1481C20.5714 15.6937 22.545 13.7037 24.9796 13.7037ZM24.9796 21.1111C26.6026 21.1111 27.9184 19.7844 27.9184 18.1481C27.9184 16.5119 26.6026 15.1852 24.9796 15.1852C23.3566 15.1852 22.0408 16.5119 22.0408 18.1481C22.0408 19.7844 23.3566 21.1111 24.9796 21.1111Z" fill="white" fill-opacity="0.1"/>
<path d="M5.14286 2.22222C5.14286 0.994923 6.12966 0 7.34694 0L27.9184 0C29.1356 0 30.1224 0.994923 30.1224 2.22222L5.14286 2.22222Z" fill="white" fill-opacity="0.1"/>
</g>
</svg>
