<svg width="106" height="88" viewBox="0 0 106 88" fill="none" xmlns="http://www.w3.org/2000/svg">
<path id="Union" fill-rule="evenodd" clip-rule="evenodd" d="M19.3565 108.704C44.3118 133.502 84.7722 133.502 109.727 108.704C134.683 83.9056 134.683 43.6996 109.727 18.9013C84.7722 -5.89701 44.3118 -5.89701 19.3565 18.9013C-5.59872 43.6996 -5.59872 83.9056 19.3565 108.704ZM28.9794 99.1415C48.6201 118.659 80.4639 118.659 100.105 99.1415C119.745 79.6244 119.745 47.9808 100.105 28.4636C80.4639 8.94642 48.6201 8.94642 28.9794 28.4636C9.33866 47.9808 9.33866 79.6244 28.9794 99.1415ZM100.045 63.8049C100.045 59.9082 96.8666 56.7493 92.9452 56.7493L71.6446 56.7493V35.5827C71.6446 31.686 68.4657 28.5271 64.5444 28.5271C60.623 28.5271 57.4442 31.686 57.4442 35.5827L57.4442 56.7493H36.1435C32.2222 56.7493 29.0433 59.9082 29.0433 63.8049C29.0433 67.7016 32.2222 70.8605 36.1435 70.8605L57.4442 70.8605L57.4442 92.0271C57.4442 95.9238 60.623 99.0827 64.5444 99.0827C68.4657 99.0827 71.6446 95.9238 71.6446 92.0271V70.8604L92.9452 70.8605C96.8666 70.8605 100.045 67.7016 100.045 63.8049Z" fill="white" fill-opacity="0.1"/>
</svg>
