<svg width="79" height="79" viewBox="0 0 79 79" fill="none" xmlns="http://www.w3.org/2000/svg">
<g id="iconmonstr-linkedin-5" clip-path="url(#clip0_1821_2542)">
<path id="Vector" d="M39.5 6.58333C57.6503 6.58333 72.4167 21.3498 72.4167 39.5C72.4167 57.6503 57.6503 72.4167 39.5 72.4167C21.3498 72.4167 6.58333 57.6503 6.58333 39.5C6.58333 21.3498 21.3498 6.58333 39.5 6.58333ZM39.5 0C17.6861 0 0 17.6861 0 39.5C0 61.3139 17.6861 79 39.5 79C61.3139 79 79 61.3139 79 39.5C79 17.6861 61.3139 0 39.5 0ZM32.9167 26.3333C32.9167 28.1668 31.4453 29.6513 29.625 29.6513C27.8047 29.6513 26.3333 28.1701 26.3333 26.3333C26.3333 24.4999 27.8047 23.0153 29.625 23.0153C31.4453 23.0153 32.9167 24.5032 32.9167 26.3333ZM32.9167 32.9167H26.3333V52.6667H32.9167V32.9167ZM42.7917 32.9167H36.2083V52.6667H42.7917V43.2492C42.7917 37.581 49.3816 37.0576 49.3816 43.2492V52.6667H55.9583V41.61C55.9583 30.8001 45.662 31.1951 42.7917 36.5145V32.9167Z" fill="url(#paint0_linear_1821_2542)"/>
</g>
<defs>
<linearGradient id="paint0_linear_1821_2542" x1="-4.50001" y1="-16.5001" x2="64.4417" y2="-30.5666" gradientUnits="userSpaceOnUse">
<stop stop-color="#0057FF"/>
<stop offset="1" stop-color="#CC00FF"/>
</linearGradient>
<clipPath id="clip0_1821_2542">
<rect width="79" height="79" fill="white"/>
</clipPath>
</defs>
</svg>
