<svg width="79" height="79" viewBox="0 0 79 79" fill="none" xmlns="http://www.w3.org/2000/svg">
<path id="Vector" d="M39.5 6.58333C57.6502 6.58333 72.4167 21.3498 72.4167 39.5C72.4167 57.6502 57.6502 72.4167 39.5 72.4167C21.3498 72.4167 6.58333 57.6502 6.58333 39.5C6.58333 21.3498 21.3498 6.58333 39.5 6.58333ZM39.5 0C17.6861 0 0 17.6861 0 39.5C0 61.3139 17.6861 79 39.5 79C61.3139 79 79 61.3139 79 39.5C79 17.6861 61.3139 0 39.5 0ZM60.8958 28.8943C59.4442 29.5394 57.8807 29.9739 56.2414 30.1714C57.9169 29.1675 59.1973 27.5809 59.8063 25.6882C58.2395 26.6164 56.5047 27.2912 54.6581 27.6533C53.1835 26.0766 51.0735 25.0924 48.7463 25.0924C43.5125 25.0924 39.6679 29.9739 40.8496 35.0431C34.1181 34.704 28.1438 31.4782 24.1477 26.5769C22.0245 30.2175 23.0483 34.9838 26.6559 37.3966C25.3294 37.3538 24.0818 36.9885 22.989 36.3828C22.9001 40.1353 25.5927 43.6475 29.49 44.4309C28.3511 44.7403 27.1003 44.8128 25.8297 44.5692C26.86 47.7884 29.8587 50.1288 33.4005 50.1946C29.9871 52.8675 25.698 54.0623 21.3958 53.5554C24.9838 55.8563 29.2399 57.196 33.8153 57.196C48.8648 57.196 57.3639 44.4869 56.8504 33.0878C58.437 31.9489 59.8096 30.5203 60.8958 28.8943Z" fill="url(#paint0_linear_977_2318)"/>
<defs>
<linearGradient id="paint0_linear_977_2318" x1="-31.5" y1="3" x2="106.5" y2="86.5" gradientUnits="userSpaceOnUse">
<stop stop-color="#0066FF"/>
<stop offset="1" stop-color="#BD00FF"/>
</linearGradient>
</defs>
</svg>
