<svg width="79" height="79" viewBox="0 0 79 79" fill="none" xmlns="http://www.w3.org/2000/svg">
<g id="iconmonstr-youtube-10 (1)" clip-path="url(#clip0_1821_2538)">
<path id="Vector" d="M53.4237 23.3774C46.8338 22.9298 32.153 22.933 25.573 23.3774C18.4465 23.8646 17.6104 28.1701 17.5545 39.5C17.6104 50.8102 18.4432 55.1354 25.5763 55.6226C32.1563 56.067 46.8371 56.0703 53.427 55.6226C60.5535 55.1354 61.3929 50.8266 61.4488 39.5C61.3896 28.1898 60.5568 23.8646 53.4237 23.3774ZM32.9167 46.8141V32.1859L48.6443 39.4868L32.9167 46.8141ZM39.5 6.58333C57.6503 6.58333 72.4167 21.3498 72.4167 39.5C72.4167 57.6503 57.6503 72.4167 39.5 72.4167C21.3498 72.4167 6.58333 57.6503 6.58333 39.5C6.58333 21.3498 21.3498 6.58333 39.5 6.58333ZM39.5 0C17.6861 0 0 17.6861 0 39.5C0 61.3139 17.6861 79 39.5 79C61.3139 79 79 61.3139 79 39.5C79 17.6861 61.3139 0 39.5 0Z" fill="url(#paint0_linear_1821_2538)"/>
</g>
<defs>
<linearGradient id="paint0_linear_1821_2538" x1="-4.50001" y1="-16.5001" x2="64.4417" y2="-30.5666" gradientUnits="userSpaceOnUse">
<stop stop-color="#0057FF"/>
<stop offset="1" stop-color="#CC00FF"/>
</linearGradient>
<clipPath id="clip0_1821_2538">
<rect width="79" height="79" fill="white"/>
</clipPath>
</defs>
</svg>
